<?xml version="1.0" encoding="utf-8" ?>
<svg xmlns="http://www.w3.org/2000/svg" xmlns:xlink="http://www.w3.org/1999/xlink" width="1000" height="800">
	<path fill="#331559" transform="scale(0.78125 0.78125)" d="M0 0L1278.91 0C1280.3 2.44878 1279.99 5.15956 1280 7.90141L1280.01 807.041L1280 969.618C1280 976.707 1280.96 1018.64 1279.61 1022.62C1279.43 1023.14 1279.19 1023.51 1278.91 1024L0 1024L0 0Z"/>
	<path fill="#FEFEFE" transform="scale(0.78125 0.78125)" d="M1113.22 898.026C1113.77 897.989 1114.5 897.888 1115.05 898.041C1116.52 898.449 1116.93 899.203 1117.49 900.498C1116.87 902.212 1116.6 902.253 1115.16 903.242C1113.54 903.03 1113.46 902.961 1112.26 901.841C1112.14 899.9 1112.33 899.66 1113.22 898.026Z"/>
	<path fill="#FEFEFE" transform="scale(0.78125 0.78125)" d="M737.565 942.491C740.048 947.926 739.937 945.393 743.201 948.614L739.858 949.257C738.362 950.563 738.088 952.459 737.58 954.303C736.331 951.185 735.675 950.37 733.075 948.196C735.619 946.303 736.374 945.521 737.565 942.491Z"/>
	<path fill="#FEFEFE" transform="scale(0.78125 0.78125)" d="M1191.4 94.0825C1193 95.1065 1192.82 95.5563 1193.55 97.236C1194.79 100.084 1196.8 100.491 1199.53 101.634L1193.72 103.662C1193.98 105.756 1193.11 107.415 1191.96 109.094C1191.41 108.31 1191.19 107.211 1190.86 106.313C1189.74 103.218 1187.64 102.966 1184.82 101.663L1184.7 100.985C1186.16 100.658 1187.99 100.398 1189.2 99.4822C1190.74 98.3199 1191.08 96.3779 1191.33 94.5898C1191.35 94.421 1191.37 94.2516 1191.4 94.0825Z"/>
	<path fill="#FEFEFE" transform="scale(0.78125 0.78125)" d="M101.656 75.5449C102.966 77.136 103.605 80.1925 104.306 82.1747C106.736 82.8167 109.198 83.3619 111.641 83.9484L104.11 86.5983L102.273 92.7672L101.824 92.8553C100.619 91.5814 100.603 88.4864 100.36 86.7575L92.0497 83.7639C93.8119 83.5166 96.6604 83.4186 98.2137 82.571C100.806 81.1562 101.032 78.1728 101.656 75.5449Z"/>
	<path fill="#FEFEFE" transform="scale(0.78125 0.78125)" d="M438.838 926.264C440.054 928.191 440.614 930.684 441.31 932.85C443.86 933.539 446.383 934.348 448.911 935.112C446.856 935.706 443.901 936.233 442.189 937.524C440.445 938.839 440.245 941.598 439.846 943.613C439.033 942.909 439.357 943.33 438.866 942.248C438.474 941.383 438.089 940.526 437.627 939.695C435.777 936.366 433.424 936.099 429.966 935.092L437.17 932.962L438.838 926.264Z"/>
	<path fill="#FEFEFE" transform="scale(0.78125 0.78125)" d="M943.916 77.3257C944.48 78.6118 945.018 80.0916 945.766 81.2775C946.947 83.1477 948.232 83.4781 950.263 83.9258L951.208 84.1301C950.335 85.3976 949.185 86.287 948.018 87.2669C947.871 88.9608 948.286 90.5835 948.603 92.2384C947.102 92.3192 945.638 90.9697 944.368 90.1438L939.927 91.8159L939.562 91.3865C941.536 85.4536 938.447 88.0363 937.067 83.9592L941.19 83.2295C942.891 82.0523 943.33 79.2387 943.916 77.3257Z"/>
	<path fill="#FEFEFE" transform="scale(0.78125 0.78125)" d="M132.898 859.461C134.239 860.925 135.081 865.102 135.723 867.104C139.002 868.397 142.654 869.183 146.055 870.142C142.555 870.78 139.131 871.568 135.685 872.453L133.219 880.328C131.99 877.869 131.405 875.129 130.685 872.486C127.494 871.685 124.25 871.039 121.035 870.332L130.503 867.03L132.898 859.461Z"/>
	<path fill="#FEFEFE" transform="scale(0.78125 0.78125)" d="M1208.08 641.715C1209.05 642.097 1209.14 641.99 1209.78 642.918C1211.05 644.745 1211.38 646.95 1211.05 649.102C1214.12 649.675 1218.01 650.383 1220.76 651.826C1217.6 653.227 1214.05 653.68 1210.66 654.318C1210.74 654.508 1210.84 654.69 1210.89 654.888C1211.56 657.41 1210.21 660.669 1209.23 662.978C1207.41 660.853 1207.97 657.118 1206.11 654.607C1203.64 652.683 1198.7 652.347 1195.69 651.789C1199.01 651.151 1202.83 650.551 1205.74 648.774C1207.4 646.712 1207.93 644.314 1208.08 641.715Z"/>
	<path fill="#7F88AC" transform="scale(0.78125 0.78125)" d="M108.368 743.565Q107.933 742.07 107.575 740.555C104.781 729.047 106.286 717.244 112.539 707.109Q113.095 706.193 113.695 705.306Q114.295 704.418 114.938 703.562Q115.582 702.705 116.267 701.882Q116.952 701.058 117.677 700.269Q118.401 699.48 119.164 698.728Q119.927 697.976 120.726 697.263Q121.526 696.55 122.359 695.877Q123.193 695.204 124.058 694.573Q124.924 693.942 125.82 693.355Q126.716 692.768 127.64 692.226Q128.563 691.683 129.513 691.188Q130.462 690.692 131.435 690.243Q132.408 689.795 133.402 689.396Q134.396 688.996 135.408 688.646Q136.42 688.296 137.449 687.997Q138.477 687.697 139.519 687.449C151.827 684.56 162.696 687.15 173.287 693.699C161.878 703.947 148.661 712.726 136.464 722.051C127.267 729.084 118.121 737.445 108.368 743.565Z"/>
	<path fill="#313C71" transform="scale(0.78125 0.78125)" d="M189.156 714.841C192.329 726.872 192.075 739.408 185.742 750.404C179.952 760.456 169.782 768.28 158.551 771.209C147.295 774.144 136.383 772.113 126.54 766.138C125.484 765.496 124.519 764.774 123.594 763.953Q156.22 739.189 189.156 714.841Z"/>
	<path fill="#313C71" transform="scale(0.78125 0.78125)" d="M885.478 858.483C889.049 870.442 887.99 883.251 881.998 894.239C875.921 905.383 866.208 913.715 853.95 917.283C841.803 920.819 829.596 918.37 818.716 912.283C817.863 911.805 817.091 911.345 816.299 910.767C832.546 897.708 849.581 885.375 866.249 872.852C872.496 868.16 879.821 863.801 885.478 858.483Z"/>
	<path fill="#4E5789" transform="scale(0.78125 0.78125)" d="M173.287 693.699C180.747 698.651 185.407 706.953 189.156 714.841Q156.22 739.189 123.594 763.953C116.256 759.157 111.732 751.421 108.368 743.565C118.121 737.445 127.267 729.084 136.464 722.051C148.661 712.726 161.878 703.947 173.287 693.699Z"/>
	<path fill="#7F88AC" transform="scale(0.78125 0.78125)" d="M799.076 889.485C798.195 887.322 797.453 884.943 796.964 882.663C794.35 870.495 796.489 857.127 803.344 846.688Q803.964 845.737 804.63 844.817Q805.296 843.898 806.007 843.013Q806.717 842.128 807.471 841.279Q808.225 840.43 809.019 839.619Q809.814 838.809 810.648 838.038Q811.482 837.268 812.353 836.54Q813.224 835.812 814.13 835.128Q815.036 834.444 815.975 833.806Q816.913 833.167 817.882 832.576Q818.852 831.985 819.849 831.443Q820.846 830.901 821.869 830.409Q822.892 829.916 823.938 829.475Q824.984 829.034 826.05 828.646Q827.116 828.257 828.201 827.921Q829.285 827.586 830.385 827.305Q831.485 827.023 832.597 826.797C846.187 824.041 858.601 827.45 869.974 834.957C858.88 844.508 846.968 853.217 835.395 862.183C823.431 871.452 811.705 881.122 799.076 889.485Z"/>
	<path fill="#4E5789" transform="scale(0.78125 0.78125)" d="M869.974 834.957C877.11 841.617 881.947 849.383 885.478 858.483C879.821 863.801 872.496 868.16 866.249 872.852C849.581 885.375 832.546 897.708 816.299 910.767C808.784 904.81 802.961 898.316 799.076 889.485C811.705 881.122 823.431 871.452 835.395 862.183C846.968 853.217 858.88 844.508 869.974 834.957Z"/>
	<path fill="#6B1390" transform="scale(0.78125 0.78125)" d="M1113.75 164.271L1115.65 164.129C1116.8 165.81 1116.72 166.875 1116.34 168.915Q1111.11 196.9 1104.13 224.5Q1097.15 252.101 1088.45 279.207C1087.26 282.824 1085.59 290.662 1082.83 293.17C1080.31 291.278 1068.73 287.07 1064.86 285.128C1058.76 282.072 1049.54 275.154 1043.63 273.759L1043.59 273.198C1050.96 265.991 1112.71 172.261 1115.14 165.282L1113.75 164.271Z"/>
	<path fill="#313C71" transform="scale(0.78125 0.78125)" d="M1131.81 725.771C1136.42 729.708 1137.39 743.433 1137.9 749.538C1139.8 772.417 1131.78 795.922 1116.89 813.333Q1116.17 814.177 1115.44 815.002Q1114.7 815.828 1113.94 816.635Q1113.19 817.442 1112.41 818.229Q1111.63 819.017 1110.83 819.785Q1110.04 820.553 1109.22 821.301Q1108.41 822.049 1107.57 822.776Q1106.74 823.503 1105.89 824.21Q1105.03 824.916 1104.17 825.601Q1103.3 826.285 1102.41 826.948Q1101.52 827.611 1100.62 828.252Q1099.72 828.892 1098.8 829.51Q1097.88 830.128 1096.95 830.722Q1096.02 831.317 1095.07 831.888Q1094.12 832.459 1093.16 833.006Q1092.2 833.554 1091.22 834.077Q1090.25 834.6 1089.26 835.099Q1088.27 835.597 1087.27 836.071Q1086.27 836.545 1085.26 836.993Q1084.25 837.442 1083.23 837.865Q1082.2 838.288 1081.17 838.686Q1080.14 839.084 1079.1 839.455Q1078.05 839.827 1077 840.172Q1075.95 840.518 1074.89 840.837Q1073.83 841.156 1072.77 841.449Q1071.7 841.741 1070.62 842.007Q1069.55 842.273 1068.47 842.512Q1067.39 842.751 1066.3 842.963Q1065.22 843.175 1064.13 843.359Q1063.04 843.544 1061.94 843.702Q1060.84 843.859 1059.75 843.989Q1058.65 844.119 1057.55 844.222Q1056.44 844.324 1055.34 844.399C1035.01 845.771 1016.82 839.531 999.642 829.149L1086.7 762.01C1101.61 750.513 1116.24 738.258 1131.63 727.454L1131.81 725.771Z"/>
	<path fill="#4E5789" transform="scale(0.78125 0.78125)" d="M1105.59 688.24C1113.12 690.579 1124.48 708.555 1128.14 715.465C1129.55 718.118 1132.41 722.71 1131.81 725.771L1131.63 727.454C1116.24 738.258 1101.61 750.513 1086.7 762.01L999.642 829.149C986.227 819.935 976.787 808.394 969.259 794.087C976.748 789.043 983.811 783.166 990.964 777.651L1030.87 746.813L1083.65 706.277C1087.36 703.446 1102.94 692.551 1105.05 689.557C1105.32 689.17 1105.41 688.679 1105.59 688.24Z"/>
	<path fill="#D5B5E7" transform="scale(0.78125 0.78125)" d="M1113.75 164.271L1115.14 165.282C1112.71 172.261 1050.96 265.991 1043.59 273.198C1038.86 269.068 1033.25 265.641 1028.35 261.625C1018.49 253.542 1009.7 244.535 1001.08 235.16L1000.79 235.082C988.84 218.602 978.752 202.003 971.555 182.891C979.386 180.4 987.723 178.722 995.763 176.958Q1010.18 173.938 1024.73 171.644Q1039.28 169.35 1053.93 167.789Q1068.58 166.228 1083.28 165.403Q1097.99 164.578 1112.72 164.492L1113.75 164.271Z"/>
	<path fill="#A66ACE" transform="scale(0.78125 0.78125)" d="M1113.75 164.271L1115.14 165.282C1112.71 172.261 1050.96 265.991 1043.59 273.198C1038.86 269.068 1033.25 265.641 1028.35 261.625C1018.49 253.542 1009.7 244.535 1001.08 235.16C1038.39 211.604 1074.64 187.011 1113.12 165.274L1112.72 164.492L1113.75 164.271Z"/>
	<path fill="#7F88AC" transform="scale(0.78125 0.78125)" d="M969.259 794.087Q967.621 790.294 966.149 786.433C958.063 764.943 959.441 739.956 968.988 719.149Q969.441 718.166 969.919 717.194Q970.396 716.223 970.897 715.263Q971.398 714.303 971.923 713.356Q972.447 712.409 972.995 711.475Q973.542 710.542 974.113 709.621Q974.683 708.701 975.276 707.795Q975.868 706.89 976.483 705.999Q977.098 705.108 977.734 704.232Q978.371 703.356 979.029 702.496Q979.686 701.637 980.365 700.793Q981.044 699.95 981.743 699.123Q982.442 698.297 983.161 697.488Q983.88 696.679 984.619 695.888Q985.358 695.097 986.116 694.324Q986.874 693.551 987.651 692.797Q988.428 692.043 989.223 691.309Q990.018 690.574 990.831 689.859Q991.643 689.144 992.474 688.449Q993.304 687.755 994.151 687.081Q994.998 686.406 995.861 685.753Q996.724 685.1 997.603 684.469Q998.482 683.837 999.376 683.227Q1000.27 682.617 1001.18 682.029Q1002.09 681.441 1003.01 680.876Q1003.93 680.311 1004.87 679.768Q1005.81 679.226 1006.76 678.706Q1007.71 678.187 1008.67 677.691Q1009.63 677.195 1010.61 676.723Q1011.58 676.251 1012.56 675.803Q1013.55 675.355 1014.55 674.931Q1015.54 674.508 1016.55 674.108Q1017.55 673.709 1018.57 673.335Q1019.64 672.943 1020.73 672.579Q1021.81 672.214 1022.9 671.877Q1023.99 671.54 1025.09 671.23Q1026.19 670.92 1027.3 670.638Q1028.4 670.357 1029.52 670.102Q1030.63 669.849 1031.75 669.623Q1032.87 669.397 1034 669.199Q1035.12 669.001 1036.25 668.832Q1037.38 668.662 1038.51 668.521Q1039.65 668.38 1040.78 668.268Q1041.92 668.156 1043.06 668.072Q1044.2 667.988 1045.34 667.933Q1046.48 667.878 1047.62 667.852Q1048.76 667.825 1049.91 667.828Q1051.05 667.83 1052.19 667.861Q1053.33 667.892 1054.47 667.952Q1055.61 668.011 1056.75 668.1Q1057.89 668.188 1059.03 668.305Q1060.17 668.422 1061.3 668.568Q1062.43 668.713 1063.56 668.887Q1064.69 669.061 1065.81 669.263Q1066.94 669.466 1068.06 669.696Q1069.17 669.927 1070.29 670.185Q1071.4 670.444 1072.51 670.73Q1073.61 671.016 1074.71 671.331Q1075.81 671.645 1076.9 671.986Q1077.99 672.328 1079.07 672.697Q1080.15 673.066 1081.22 673.462Q1082.29 673.858 1083.35 674.281Q1084.42 674.703 1085.47 675.153Q1086.52 675.602 1087.56 676.078Q1088.59 676.553 1089.62 677.055C1093.47 678.894 1104.16 684.203 1105.59 688.24C1105.41 688.679 1105.32 689.17 1105.05 689.557C1102.94 692.551 1087.36 703.446 1083.65 706.277L1030.87 746.813L990.964 777.651C983.811 783.166 976.748 789.043 969.259 794.087Z"/>
	<path fill="#B12DD2" transform="scale(0.78125 0.78125)" d="M794.364 640.716C800.885 637.168 807.982 634.419 814.688 631.197Q832.237 622.874 848.987 613.04C854.803 609.675 878.82 592.603 881.839 591.854C880.598 617.737 873.993 639.865 862.657 663.092C859.53 667.826 856.934 672.897 853.912 677.702C848.892 685.686 843.003 693.32 836.931 700.53C798.621 746.012 745.049 775.947 689.918 796.182C681.303 799.344 672.643 802.843 663.831 805.407C651.818 811.027 632.232 815.198 619.039 819.203C636.008 806.748 650.64 791.505 663.439 774.834Q665.957 771.783 668.398 768.67Q670.838 765.556 673.199 762.382Q675.56 759.208 677.84 755.975Q680.12 752.742 682.318 749.452Q684.515 746.163 686.629 742.819Q688.742 739.475 690.771 736.078Q692.799 732.682 694.741 729.235Q696.683 725.789 698.538 722.294Q700.392 718.799 702.157 715.259Q703.922 711.718 705.598 708.134Q707.273 704.55 708.857 700.925Q710.441 697.3 711.933 693.636Q713.425 689.972 714.824 686.271Q716.223 682.571 717.528 678.836Q718.833 675.101 720.043 671.335Q721.253 667.568 722.368 663.772C746.662 660.235 772.53 651.952 794.364 640.716Z"/>
	<path fill="#6B1390" transform="scale(0.78125 0.78125)" d="M794.364 640.716C782.281 704.564 733.99 757.698 681.814 793.227C679.451 794.836 664.027 803.685 663.657 805.103L663.831 805.407C651.818 811.027 632.232 815.198 619.039 819.203C636.008 806.748 650.64 791.505 663.439 774.834Q665.957 771.783 668.398 768.67Q670.838 765.556 673.199 762.382Q675.56 759.208 677.84 755.975Q680.12 752.742 682.318 749.452Q684.515 746.163 686.629 742.819Q688.742 739.475 690.771 736.078Q692.799 732.682 694.741 729.235Q696.683 725.789 698.538 722.294Q700.392 718.799 702.157 715.259Q703.922 711.718 705.598 708.134Q707.273 704.55 708.857 700.925Q710.441 697.3 711.933 693.636Q713.425 689.972 714.824 686.271Q716.223 682.571 717.528 678.836Q718.833 675.101 720.043 671.335Q721.253 667.568 722.368 663.772C746.662 660.235 772.53 651.952 794.364 640.716Z"/>
	<path fill="#1B0845" transform="scale(0.78125 0.78125)" d="M619.268 574.401C634.059 588.282 648.036 603.079 663.118 616.636L663.093 616.879C677.149 629.679 694.599 645.383 710.905 655.189C715.517 653.788 720.448 653.035 725.124 651.731C724.282 655.768 723.437 659.787 722.368 663.772Q721.253 667.568 720.043 671.335Q718.833 675.101 717.528 678.836Q716.223 682.571 714.824 686.271Q713.425 689.972 711.933 693.636Q710.441 697.3 708.857 700.925Q707.273 704.55 705.598 708.134Q703.922 711.718 702.157 715.259Q700.392 718.799 698.538 722.294Q696.683 725.788 694.741 729.235Q692.799 732.682 690.771 736.078Q688.742 739.475 686.629 742.819Q684.515 746.163 682.318 749.452Q680.12 752.742 677.84 755.975Q675.56 759.208 673.199 762.382Q670.838 765.556 668.398 768.67Q665.957 771.783 663.439 774.834C657.781 775.588 634.11 791.433 627.385 795.358C568.607 829.671 492.364 868.308 422.853 863.009C416.993 862.562 393.455 860.444 389.193 857.272C388.964 857.101 388.749 856.913 388.527 856.733L405.722 847.556Q420.224 839.897 434.238 831.38Q448.253 822.862 461.729 813.516Q475.206 804.17 488.096 794.03Q500.986 783.89 513.243 772.993Q524.547 762.798 535.11 751.838C538.743 748.095 547.327 737.022 550.959 734.952L551.456 736.241C551.701 732.026 552.898 723.602 551.235 719.772C551.778 718.968 552.107 718.023 552.216 717.056C552.808 711.832 552.532 706.302 552.8 701.028C553.265 691.915 554.186 682.845 555.118 673.77C556.376 666.344 557.541 659.089 560.149 651.983L560.745 652.163L569.948 661.195L606.986 622.148C604.257 619.054 601.213 616.218 598.268 613.33C595.17 610.23 592.116 607.12 589.187 603.857L596.961 595.936L597.315 595.85C604.812 589.128 611.208 580.3 619.268 574.401Z"/>
	<path fill="#3B0873" transform="scale(0.78125 0.78125)" d="M619.268 574.401C634.059 588.282 648.036 603.079 663.118 616.636L663.093 616.879C677.149 629.679 694.599 645.383 710.905 655.189C703.998 658.931 678.876 675.176 674.235 676.708C671.453 678.4 668.786 680.332 666.096 682.169C657.706 672.315 648.105 663.221 639.041 653.97L631.251 646.104Q619.224 634.019 606.986 622.148C604.257 619.054 601.213 616.218 598.268 613.33C595.17 610.23 592.116 607.12 589.187 603.857L596.961 595.936L597.315 595.85C604.812 589.128 611.208 580.3 619.268 574.401Z"/>
	<path fill="#6C3D9B" transform="scale(0.78125 0.78125)" d="M596.961 595.936L597.315 595.85C600.226 600.888 621.207 622.301 626.188 626.576C642.278 643.042 659.137 659.37 674.235 676.708C671.453 678.4 668.786 680.332 666.096 682.169C657.706 672.315 648.105 663.221 639.041 653.97L631.251 646.104Q619.224 634.019 606.986 622.148C604.257 619.054 601.213 616.218 598.268 613.33C595.17 610.23 592.116 607.12 589.187 603.857L596.961 595.936Z"/>
	<path fill="#6B1390" transform="scale(0.78125 0.78125)" d="M619.268 574.401C634.059 588.282 648.036 603.079 663.118 616.636L663.093 616.879C655.451 618.581 647.976 620.911 640.419 622.946C635.7 624.217 630.851 625.12 626.188 626.576C621.207 622.301 600.226 600.888 597.315 595.85C604.812 589.128 611.208 580.3 619.268 574.401Z"/>
	<path fill="#C37737" transform="scale(0.78125 0.78125)" d="M606.986 622.148Q619.224 634.019 631.251 646.104L639.041 653.97C630.118 663.84 619.496 674.043 611.386 684.399C610.559 693.769 609.807 703.114 607.778 712.316C601.275 741.818 583.595 767.299 560.674 786.543C553.352 792.69 545.494 798.441 537.11 803.052C550.472 776.68 550.99 764.809 551.456 736.241C551.701 732.026 552.898 723.602 551.235 719.772C551.778 718.968 552.107 718.023 552.216 717.056C552.808 711.832 552.532 706.302 552.8 701.028C553.265 691.915 554.186 682.845 555.118 673.77C556.376 666.344 557.541 659.089 560.149 651.983L560.745 652.163L569.948 661.195L606.986 622.148Z"/>
	<path fill="#3B0873" transform="scale(0.78125 0.78125)" d="M606.986 622.148Q619.224 634.019 631.251 646.104L639.041 653.97C630.118 663.84 619.496 674.043 611.386 684.399C607.695 686.803 604.55 689.68 601.484 692.823C598.963 690.211 596.304 687.712 593.709 685.173Q581.684 673.327 569.948 661.195L606.986 622.148Z"/>
	<path fill="#313C71" transform="scale(0.78125 0.78125)" d="M631.251 646.104L639.041 653.97C630.118 663.84 619.496 674.043 611.386 684.399C607.695 686.803 604.55 689.68 601.484 692.823C598.963 690.211 596.304 687.712 593.709 685.173C605.567 671.479 618.425 658.875 631.251 646.104Z"/>
	<path fill="#1B0845" transform="scale(0.78125 0.78125)" d="M1027.93 404.857C1064.82 410.286 1148.96 421.482 1171.54 451.446C1176.66 458.241 1178.4 466.417 1177.18 474.781C1175.64 485.26 1167.16 503.487 1158.38 509.787C1151.3 514.857 1142.75 518.659 1135.02 522.709C1117.16 532.076 1099.07 540.963 1081.13 550.173Q996.294 593.614 912.083 638.254C904.737 642.23 867.807 662.896 862.657 663.092C873.993 639.865 880.598 617.737 881.839 591.854C881.901 582.851 880.487 573.547 879.293 564.633C929.327 528.629 979.101 476.532 1014.17 425.999C1017.94 420.574 1026.34 410.921 1027.93 404.857Z"/>
	<path fill="#6C3D9B" transform="scale(0.78125 0.78125)" d="M1043.63 273.759C1049.54 275.154 1058.76 282.072 1064.86 285.128C1068.73 287.07 1080.31 291.278 1082.83 293.17C1083.3 295.272 1073.47 322.044 1071.74 324.438C1071.35 324.98 1070.83 325.304 1070.26 325.633C1070.5 332.767 1035.23 396.881 1028.82 404.018C1028.57 404.296 1028.2 404.617 1027.93 404.857C1026.34 410.921 1017.94 420.574 1014.17 425.999C979.101 476.532 929.327 528.629 879.293 564.633C880.487 573.547 881.901 582.851 881.839 591.854C878.82 592.603 854.803 609.675 848.987 613.04Q832.237 622.874 814.688 631.197C807.982 634.419 800.885 637.168 794.364 640.716C772.53 651.952 746.662 660.235 722.368 663.772C723.437 659.787 724.282 655.768 725.124 651.731C720.448 653.035 715.517 653.788 710.905 655.189C694.599 645.383 677.149 629.679 663.093 616.879L663.118 616.636C674.468 613.918 699.255 600.187 710.724 593.918C801.47 544.309 877.493 472.741 946.403 396.57C973.567 366.543 1000.56 335.409 1023.38 301.905L1023.75 301.766C1031.01 293.536 1037.54 282.927 1043.63 273.759Z"/>
	<path fill="#3B0873" transform="scale(0.78125 0.78125)" d="M796.989 618.492C796.983 626.105 795.836 633.284 794.364 640.716C772.53 651.952 746.662 660.235 722.368 663.772C723.437 659.787 724.282 655.768 725.124 651.731C749.868 643.907 774.189 630.759 796.989 618.492Z"/>
	<path fill="#3B0873" transform="scale(0.78125 0.78125)" d="M1043.63 273.759C1049.54 275.154 1058.76 282.072 1064.86 285.128C1068.73 287.07 1080.31 291.278 1082.83 293.17C1083.3 295.272 1073.47 322.044 1071.74 324.438C1071.35 324.98 1070.83 325.304 1070.26 325.633C1068.66 323.617 1055.83 319.492 1052.51 317.964C1042.54 313.361 1033.1 307.494 1023.75 301.766C1031.01 293.536 1037.54 282.927 1043.63 273.759Z"/>
	<path fill="#6B1390" transform="scale(0.78125 0.78125)" d="M879.293 564.633C880.487 573.547 881.901 582.851 881.839 591.854C878.82 592.603 854.803 609.675 848.987 613.04Q832.237 622.874 814.688 631.197C807.982 634.419 800.885 637.168 794.364 640.716C795.836 633.284 796.983 626.105 796.989 618.492C800.902 615.066 823.826 603.212 830.334 599.317Q843.151 591.491 855.405 582.81Q867.659 574.129 879.293 564.633Z"/>
	<defs>
		<linearGradient id="gradient_0" gradientUnits="userSpaceOnUse" x1="543.68671" y1="772.19098" x2="312.29318" y2="742.72675">
			<stop offset="0" stop-color="#FFB216"/>
			<stop offset="1" stop-color="#FED52F"/>
		</linearGradient>
	</defs>
	<path fill="url(#gradient_0)" transform="scale(0.78125 0.78125)" d="M472.538 641.622C475.197 639.745 478.563 639.179 481.653 638.329C498.115 633.802 513.094 626.604 528.397 619.195C529.67 620.545 531.018 621.866 532.204 623.292L532.541 623.462C534.937 625.981 537.399 628.461 539.728 631.041C541.79 633.272 543.809 635.628 545.999 637.73C549.57 641.241 553.411 644.665 556.755 648.384L560.149 651.983C557.541 659.089 556.376 666.344 555.118 673.77C554.186 682.845 553.265 691.915 552.8 701.028C552.532 706.302 552.808 711.832 552.216 717.056C552.107 718.023 551.778 718.968 551.235 719.772C552.898 723.602 551.701 732.026 551.456 736.241L550.959 734.952C547.327 737.022 538.743 748.095 535.11 751.838Q524.547 762.798 513.243 772.993Q500.986 783.89 488.096 794.03Q475.206 804.17 461.729 813.516Q448.253 822.862 434.238 831.38Q420.224 839.897 405.722 847.556L388.527 856.733C375.26 862.936 362.18 869.489 348.79 875.433Q313.084 891.412 276.001 903.863C261.676 908.798 246.783 913.928 231.977 917.202Q236.75 906.724 241.683 896.32C284.651 806 346.49 714.019 423.135 649.042C430.477 648.149 437.794 646.88 445.103 645.742C450.463 643.947 467.724 640.076 472.538 641.622Z"/>
	<path fill="#AC1060" transform="scale(0.78125 0.78125)" d="M551.235 719.772C552.898 723.602 551.701 732.026 551.456 736.241L550.959 734.952C547.327 737.022 538.743 748.095 535.11 751.838Q524.547 762.798 513.243 772.993Q500.986 783.89 488.096 794.03Q475.206 804.17 461.729 813.516Q448.253 822.862 434.238 831.38Q420.224 839.897 405.722 847.556C404.266 844.697 405.933 841.889 405.776 838.83C405.565 834.735 399.371 830.698 396.539 828.341C396.22 828.469 395.785 828.653 395.466 828.73C392.3 829.492 388.788 832.552 385.746 832.438C385.426 832.426 385.107 832.388 384.788 832.363C400.544 823.381 417.073 815.771 432.791 806.617Q448.663 797.32 464.037 787.219Q479.411 777.118 494.246 766.241Q509.081 755.364 523.337 743.739Q537.594 732.114 551.235 719.772Z"/>
	<defs>
		<linearGradient id="gradient_1" gradientUnits="userSpaceOnUse" x1="412.79562" y1="834.52826" x2="317.66922" y2="767.34296">
			<stop offset="0" stop-color="#B8146C"/>
			<stop offset="1" stop-color="#E13D97"/>
		</linearGradient>
	</defs>
	<path fill="url(#gradient_1)" transform="scale(0.78125 0.78125)" d="M445.103 645.742C387.471 696.773 316.43 789.346 295.424 863.15C317.898 858.611 339.139 851.817 360.4 843.258C367.58 840.367 378.089 834.029 384.788 832.363C385.107 832.388 385.426 832.426 385.746 832.438C388.788 832.552 392.3 829.492 395.466 828.73C395.785 828.653 396.22 828.469 396.539 828.341C399.371 830.698 405.565 834.735 405.776 838.83C405.933 841.889 404.266 844.697 405.722 847.556L388.527 856.733C375.26 862.936 362.18 869.489 348.79 875.433Q313.084 891.412 276.001 903.863C261.676 908.798 246.783 913.928 231.977 917.202Q236.75 906.724 241.683 896.32C284.651 806 346.49 714.019 423.135 649.042C430.477 648.149 437.794 646.88 445.103 645.742Z"/>
	<path fill="#FEFEFE" transform="scale(0.78125 0.78125)" d="M472.538 641.622C475.197 639.745 478.563 639.179 481.653 638.329C498.115 633.802 513.094 626.604 528.397 619.195C529.67 620.545 531.018 621.866 532.204 623.292L532.541 623.462C534.937 625.981 537.399 628.461 539.728 631.041C541.79 633.272 543.809 635.628 545.999 637.73C549.57 641.241 553.411 644.665 556.755 648.384L560.149 651.983C557.541 659.089 556.376 666.344 555.118 673.77C547.965 682.572 540.894 691.386 533.108 699.649Q530.858 702.044 528.567 704.401Q526.277 706.758 523.946 709.075Q521.616 711.393 519.246 713.67Q516.877 715.947 514.468 718.183Q512.06 720.42 509.614 722.615Q507.168 724.81 504.685 726.962Q502.202 729.115 499.682 731.225Q497.163 733.335 494.608 735.402Q492.053 737.469 489.463 739.492Q486.873 741.515 484.248 743.493Q481.624 745.471 478.967 747.405Q476.309 749.338 473.619 751.225Q470.929 753.113 468.207 754.954Q465.485 756.796 462.732 758.59Q459.979 760.385 457.195 762.132Q454.412 763.88 451.599 765.579Q448.787 767.279 445.945 768.93Q443.104 770.581 440.235 772.184Q437.366 773.786 434.47 775.34Q431.574 776.893 428.652 778.397Q425.73 779.9 422.783 781.354Q419.835 782.807 416.864 784.21Q413.892 785.613 410.897 786.965Q407.902 788.317 404.884 789.618Q401.866 790.919 398.826 792.168Q395.787 793.417 392.726 794.614Q389.666 795.81 386.585 796.955Q383.505 798.099 380.405 799.191Q377.306 800.283 374.188 801.321Q371.07 802.36 367.935 803.345Q364.8 804.33 361.649 805.262Q358.498 806.193 355.331 807.071C359.159 793.148 365.657 779.438 372.386 766.71C397.586 719.045 433.166 678.134 472.538 641.622Z"/>
	<path fill="#E3A347" transform="scale(0.78125 0.78125)" d="M532.204 623.292L532.541 623.462C534.937 625.981 537.399 628.461 539.728 631.041C535.264 637.733 529.843 643.709 524.677 649.858L501.308 677.623C497.308 682.375 491.344 688.078 488.796 693.673L489.221 694.998L487.173 696.056L486.397 695.584C487.372 691.02 490.975 685.774 493.166 681.61C503.875 661.261 515.473 639.41 532.204 623.292Z"/>
	<path fill="#C37737" transform="scale(0.78125 0.78125)" d="M539.728 631.041C541.79 633.272 543.809 635.628 545.999 637.73C549.57 641.241 553.411 644.665 556.755 648.384C537.196 666.41 513.643 684.159 489.221 694.998L488.796 693.673C491.344 688.078 497.308 682.375 501.308 677.623L524.677 649.858C529.843 643.709 535.264 637.733 539.728 631.041Z"/>
	<path fill="#A66ACE" transform="scale(0.78125 0.78125)" d="M1000.79 235.082L1001.08 235.16C1009.7 244.535 1018.49 253.542 1028.35 261.625C1033.25 265.641 1038.86 269.068 1043.59 273.198L1043.63 273.759C1037.54 282.927 1031.01 293.536 1023.75 301.766L1023.38 301.905C1000.56 335.409 973.567 366.543 946.403 396.57C877.493 472.741 801.47 544.309 710.724 593.918C699.255 600.187 674.468 613.918 663.118 616.636C648.036 603.079 634.059 588.282 619.268 574.401L619.303 574.162C623.517 571.11 627.503 566.156 631.206 562.446L658.692 534.896C692.576 500.957 726.156 466.305 761.126 433.508C762.7 424.669 765.412 416.286 770.756 408.975C780.513 395.626 794.334 390.256 810.115 387.762C824.703 373.981 838.299 358.696 853.411 345.555Q852.764 343.804 852.221 342.018Q851.678 340.232 851.241 338.417Q850.803 336.602 850.473 334.765Q850.142 332.928 849.92 331.074Q849.698 329.22 849.585 327.357Q849.472 325.494 849.468 323.627Q849.464 321.76 849.57 319.896Q849.675 318.032 849.89 316.178C851.984 299.474 861.032 283.101 874.496 272.908C889.334 261.674 907.231 257.192 925.581 259.71C932.944 261.241 940.107 263.483 946.401 267.704L949.056 269.024C956.471 264.082 963.787 258.98 971.378 254.308L971.663 254.364C981.093 247.476 990.898 241.274 1000.79 235.082Z"/>
	<path fill="#6C3D9B" transform="scale(0.78125 0.78125)" d="M1000.79 235.082L1001.08 235.16C1009.7 244.535 1018.49 253.542 1028.35 261.625C1033.25 265.641 1038.86 269.068 1043.59 273.198L1043.63 273.759C1037.54 282.927 1031.01 293.536 1023.75 301.766L1023.38 301.905C1019.31 297.888 1013.73 294.5 1009.17 290.935C996.447 280.987 980.665 267.807 971.663 254.364C981.093 247.476 990.898 241.274 1000.79 235.082Z"/>
	<path fill="#6C3D9B" transform="scale(0.78125 0.78125)" d="M946.401 267.704L949.056 269.024C966.962 283.915 978.191 296.659 980.306 321.046C981.725 337.404 976.202 355.341 965.487 367.827C954.749 380.339 938.576 388.239 922.156 389.41C919.53 389.598 916.876 389.526 914.245 389.463C906.857 388.751 900.042 387.32 893.021 384.851C897.081 380.936 900.7 376.307 903.367 371.334L905.95 372.229C909.973 373.201 914.251 373.521 918.379 373.372Q919.585 373.334 920.788 373.235Q921.991 373.137 923.187 372.979Q924.384 372.821 925.571 372.604Q926.758 372.387 927.933 372.111Q929.108 371.835 930.268 371.502Q931.427 371.168 932.569 370.776Q933.711 370.385 934.832 369.938Q935.953 369.491 937.05 368.988Q938.147 368.485 939.218 367.929Q940.289 367.372 941.331 366.764Q942.373 366.154 943.384 365.494Q944.394 364.834 945.371 364.125Q946.347 363.416 947.287 362.658Q948.227 361.901 949.128 361.099Q950.029 360.296 950.89 359.449Q951.75 358.602 952.567 357.714Q953.359 356.854 954.108 355.956Q954.857 355.058 955.56 354.124Q956.263 353.189 956.919 352.221Q957.574 351.253 958.181 350.253Q958.787 349.254 959.344 348.225Q959.9 347.197 960.404 346.142Q960.909 345.087 961.36 344.008Q961.811 342.929 962.208 341.829Q962.605 340.73 962.947 339.611Q963.288 338.493 963.574 337.359Q963.86 336.225 964.089 335.078Q964.318 333.932 964.489 332.775Q964.661 331.618 964.774 330.454Q964.888 329.291 964.944 328.123Q965 326.955 964.997 325.785Q964.995 324.616 964.934 323.448C964.27 307.948 956.425 294.971 945.238 284.696C945.055 279.704 943.886 272.094 946.401 267.704Z"/>
	<defs>
		<linearGradient id="gradient_2" gradientUnits="userSpaceOnUse" x1="851.41565" y1="473.75763" x2="774.67102" y2="405.54761">
			<stop offset="0" stop-color="#6C20AC"/>
			<stop offset="1" stop-color="#B325DB"/>
		</linearGradient>
	</defs>
	<path fill="url(#gradient_2)" transform="scale(0.78125 0.78125)" d="M810.115 387.762C824.122 387.199 837.047 391.171 847.495 400.724C857.792 410.14 864.409 422.791 865.019 436.812C865.647 451.272 861.171 465.652 851.191 476.317C841.929 486.216 829.062 491.679 815.581 492.071C801.754 492.472 788.218 487.676 778.156 478.103Q777.167 477.173 776.226 476.194Q775.285 475.215 774.394 474.191Q773.503 473.166 772.664 472.098Q771.826 471.03 771.042 469.921Q770.258 468.813 769.531 467.666Q768.803 466.519 768.135 465.338Q767.466 464.156 766.857 462.942Q766.248 461.728 765.701 460.486Q765.154 459.243 764.669 457.974Q764.185 456.705 763.765 455.414Q763.345 454.123 762.991 452.812Q762.636 451.501 762.347 450.174Q762.059 448.847 761.837 447.507Q761.616 446.168 761.461 444.818Q761.307 443.469 761.221 442.114Q761.134 440.759 761.116 439.401Q761.054 436.454 761.126 433.508C762.7 424.669 765.412 416.286 770.756 408.975C780.513 395.626 794.334 390.256 810.115 387.762Z"/>
	<path fill="#FEFEFE" transform="scale(0.78125 0.78125)" d="M811.576 400.956C820.086 400.049 829.547 403.369 836.144 408.672Q836.93 409.314 837.684 409.995Q838.438 410.675 839.158 411.391Q839.877 412.108 840.561 412.859Q841.244 413.61 841.89 414.394Q842.536 415.178 843.142 415.992Q843.748 416.807 844.314 417.651Q844.879 418.494 845.403 419.364Q845.926 420.235 846.406 421.13Q846.885 422.025 847.321 422.943Q847.756 423.86 848.146 424.798Q848.535 425.736 848.878 426.692Q849.221 427.648 849.516 428.619Q849.812 429.591 850.059 430.576Q850.307 431.561 850.505 432.557Q850.704 433.553 850.853 434.558Q851.002 435.562 851.102 436.573Q851.197 437.488 851.247 438.407Q851.296 439.326 851.3 440.246Q851.304 441.166 851.262 442.086Q851.22 443.005 851.133 443.921Q851.045 444.837 850.913 445.747Q850.78 446.658 850.602 447.561Q850.424 448.464 850.202 449.356Q849.98 450.249 849.713 451.13Q849.447 452.011 849.137 452.877Q848.827 453.744 848.475 454.594Q848.123 455.444 847.729 456.275Q847.334 457.107 846.899 457.917Q846.465 458.728 845.99 459.517Q845.515 460.305 845.002 461.069Q844.489 461.832 843.939 462.57Q843.388 463.307 842.802 464.016C836.018 472.085 826.98 475.614 816.704 476.584C807.15 476.489 798.255 474.206 790.616 468.242C782.472 461.883 776.852 452.363 775.76 442.041Q775.661 441.136 775.607 440.227Q775.553 439.318 775.543 438.408Q775.533 437.497 775.568 436.588Q775.603 435.678 775.683 434.771Q775.762 433.864 775.886 432.962Q776.01 432.06 776.178 431.165Q776.346 430.27 776.557 429.384Q776.769 428.499 777.023 427.625Q777.278 426.751 777.575 425.89Q777.873 425.03 778.212 424.185Q778.551 423.34 778.931 422.512Q779.311 421.685 779.731 420.877Q780.151 420.07 780.61 419.284Q781.069 418.497 781.567 417.735Q782.064 416.972 782.598 416.235Q783.132 415.497 783.701 414.787C790.913 405.878 800.451 402.191 811.576 400.956Z"/>
	<path fill="#63CDC9" transform="scale(0.78125 0.78125)" d="M837.022 414.626C843.783 422.023 848.562 431.899 848.063 442.095Q848.022 442.878 847.943 443.657Q847.864 444.437 847.746 445.212Q847.629 445.987 847.473 446.755Q847.318 447.524 847.125 448.283Q846.932 449.043 846.703 449.792Q846.473 450.541 846.206 451.278Q845.94 452.015 845.637 452.739Q845.335 453.462 844.997 454.169Q844.66 454.876 844.288 455.566Q843.916 456.256 843.511 456.927Q843.106 457.598 842.668 458.248Q842.23 458.898 841.761 459.526Q841.292 460.154 840.792 460.758Q840.293 461.361 839.765 461.94Q839.236 462.519 838.68 463.071Q838.124 463.623 837.541 464.147Q836.92 464.713 836.272 465.247Q835.623 465.781 834.949 466.282Q834.274 466.782 833.575 467.248Q832.877 467.715 832.155 468.145Q831.434 468.575 830.692 468.969Q829.95 469.362 829.189 469.718Q828.428 470.074 827.65 470.391Q826.872 470.708 826.08 470.986Q825.287 471.263 824.481 471.501Q823.675 471.738 822.859 471.934Q822.042 472.131 821.217 472.286Q820.391 472.441 819.559 472.555Q818.727 472.668 817.89 472.74Q817.053 472.811 816.213 472.841Q815.374 472.87 814.534 472.857Q813.694 472.844 812.856 472.789C804.642 472.325 797.256 469.059 791.816 462.814Q790.12 460.881 788.791 458.679Q787.462 456.477 786.541 454.076C787.419 454.141 787.112 454.037 787.859 454.382C795.617 457.966 802.415 459.595 810.98 458.531C819.439 457.479 827.066 453.313 832.255 446.507C840.833 435.255 838.598 427.705 837.072 415.071L837.022 414.626Z"/>
	<path fill="#C3E8EE" transform="scale(0.78125 0.78125)" d="M786.541 454.076C785.083 450.858 784.668 447.687 784.592 444.177C784.386 434.599 787.848 424.914 794.612 418.055C801.139 411.437 809.862 408.269 819.083 408.3C825.442 408.322 832.376 409.963 837.022 414.626L837.072 415.071C838.598 427.705 840.833 435.255 832.255 446.507C827.066 453.313 819.439 457.479 810.98 458.531C802.415 459.595 795.617 457.966 787.859 454.382C787.112 454.037 787.419 454.141 786.541 454.076Z"/>
	<path fill="#FEFEFE" transform="scale(0.78125 0.78125)" d="M853.411 345.555Q852.764 343.804 852.221 342.018Q851.678 340.232 851.241 338.417Q850.803 336.602 850.473 334.765Q850.142 332.928 849.92 331.074Q849.698 329.22 849.585 327.357Q849.472 325.494 849.468 323.627Q849.464 321.76 849.57 319.896Q849.675 318.032 849.89 316.178C851.984 299.474 861.032 283.101 874.496 272.908C889.334 261.674 907.231 257.192 925.581 259.71C932.944 261.241 940.107 263.483 946.401 267.704C943.886 272.094 945.055 279.704 945.238 284.696C956.425 294.971 964.27 307.948 964.934 323.448Q964.995 324.616 964.997 325.785Q965 326.955 964.944 328.123Q964.888 329.291 964.774 330.454Q964.661 331.618 964.489 332.775Q964.318 333.932 964.089 335.078Q963.86 336.225 963.574 337.359Q963.288 338.493 962.947 339.611Q962.605 340.73 962.208 341.829Q961.811 342.929 961.36 344.008Q960.909 345.087 960.404 346.142Q959.9 347.197 959.344 348.225Q958.788 349.254 958.181 350.253Q957.574 351.253 956.919 352.221Q956.263 353.189 955.56 354.124Q954.857 355.058 954.108 355.956Q953.359 356.854 952.567 357.714Q951.75 358.602 950.89 359.449Q950.029 360.296 949.128 361.099Q948.227 361.901 947.287 362.658Q946.347 363.416 945.371 364.125Q944.394 364.834 943.384 365.494Q942.373 366.154 941.331 366.764Q940.289 367.372 939.218 367.929Q938.147 368.485 937.05 368.988Q935.953 369.491 934.832 369.938Q933.711 370.385 932.569 370.776Q931.427 371.168 930.268 371.502Q929.108 371.835 927.933 372.111Q926.758 372.387 925.571 372.604Q924.384 372.821 923.187 372.979Q921.991 373.137 920.788 373.235Q919.585 373.334 918.379 373.372C914.251 373.521 909.973 373.201 905.95 372.229L903.367 371.334C900.7 376.307 897.081 380.936 893.021 384.851Q891.628 384.496 890.277 384.006C871.979 377.327 861.294 362.524 853.411 345.555Z"/>
	<path fill="#63CDC9" transform="scale(0.78125 0.78125)" d="M947.281 293.867C956.046 302.578 960.774 315.051 960.749 327.363Q960.746 328.375 960.692 329.385Q960.638 330.396 960.534 331.402Q960.429 332.409 960.275 333.409Q960.12 334.409 959.916 335.4Q959.712 336.391 959.458 337.371Q959.205 338.35 958.903 339.316Q958.601 340.282 958.251 341.231Q957.901 342.181 957.504 343.111Q957.107 344.042 956.664 344.952Q956.221 345.861 955.733 346.748Q955.245 347.634 954.713 348.495Q954.181 349.356 953.608 350.189Q953.034 351.023 952.419 351.826Q951.804 352.63 951.149 353.401Q950.495 354.173 949.803 354.911Q949.111 355.649 948.383 356.352Q947.656 357.046 946.897 357.704Q946.137 358.362 945.346 358.982Q944.555 359.602 943.735 360.183Q942.915 360.763 942.067 361.303Q941.22 361.843 940.347 362.341Q939.474 362.838 938.578 363.293Q937.682 363.747 936.764 364.158Q935.847 364.568 934.911 364.933Q933.974 365.298 933.021 365.617Q932.069 365.935 931.101 366.207Q930.134 366.479 929.154 366.703Q928.175 366.927 927.186 367.103Q926.196 367.28 925.2 367.407Q924.203 367.535 923.201 367.613Q922.199 367.692 921.195 367.722Q920.191 367.751 919.186 367.732Q918.117 367.704 917.051 367.624Q915.984 367.544 914.923 367.411Q913.862 367.279 912.808 367.094Q911.755 366.91 910.711 366.674Q909.668 366.439 908.638 366.152Q907.607 365.866 906.592 365.529Q905.577 365.192 904.58 364.806Q903.582 364.42 902.605 363.986Q901.628 363.551 900.673 363.07Q899.718 362.588 898.788 362.06Q897.858 361.532 896.955 360.959Q896.052 360.386 895.178 359.769Q894.304 359.153 893.461 358.494Q892.618 357.835 891.809 357.136Q891 356.437 890.225 355.699Q889.451 354.961 888.714 354.186C883.651 348.761 880.837 342.489 879.083 335.352C879.928 335.577 879.644 335.416 880.315 335.906C891.635 344.159 902.169 349.964 916.65 348.464Q917.558 348.375 918.46 348.239Q919.362 348.104 920.256 347.924Q921.15 347.743 922.034 347.518Q922.918 347.292 923.789 347.023Q924.661 346.753 925.518 346.439Q926.374 346.126 927.214 345.77Q928.054 345.414 928.875 345.015Q929.695 344.617 930.495 344.178Q931.294 343.739 932.071 343.26Q932.847 342.781 933.599 342.264Q934.35 341.746 935.074 341.192Q935.798 340.637 936.494 340.046Q937.189 339.456 937.854 338.831Q938.518 338.206 939.15 337.548Q939.783 336.891 940.381 336.202Q940.979 335.513 941.542 334.795C948.469 326.113 950.97 315.49 949.354 304.603C948.838 301.127 947.668 297.773 947.317 294.28C947.303 294.142 947.293 294.005 947.281 293.867Z"/>
	<path fill="#B12DD2" transform="scale(0.78125 0.78125)" d="M853.411 345.555Q852.764 343.804 852.221 342.018Q851.678 340.232 851.241 338.417Q850.803 336.602 850.473 334.765Q850.142 332.928 849.92 331.074Q849.698 329.22 849.585 327.357Q849.472 325.494 849.468 323.627Q849.464 321.76 849.57 319.896Q849.675 318.032 849.89 316.178C851.984 299.474 861.032 283.101 874.496 272.908C889.334 261.674 907.231 257.192 925.581 259.71C932.944 261.241 940.107 263.483 946.401 267.704C943.886 272.094 945.055 279.704 945.238 284.696C939.464 280.041 933.074 277.265 926.147 274.792C912.284 272.197 899.263 274.049 887.405 282.052C876.729 289.257 869.5 301.082 867.219 313.696Q866.994 314.926 866.831 316.167Q866.668 317.407 866.567 318.653Q866.466 319.9 866.428 321.15Q866.389 322.401 866.413 323.651Q866.437 324.902 866.524 326.15Q866.61 327.398 866.759 328.639Q866.907 329.881 867.118 331.114Q867.328 332.347 867.6 333.568Q867.871 334.789 868.204 335.995Q868.536 337.201 868.928 338.389Q869.32 339.576 869.771 340.743Q870.222 341.91 870.731 343.052Q871.239 344.195 871.804 345.311Q872.37 346.427 872.99 347.513Q873.61 348.599 874.283 349.653Q874.957 350.707 875.682 351.726C881.61 360.039 892.422 368.859 902.527 371.22C902.802 371.284 903.087 371.296 903.367 371.334C900.7 376.307 897.081 380.936 893.021 384.851Q891.628 384.496 890.277 384.006C871.979 377.327 861.294 362.524 853.411 345.555Z"/>
	<path fill="#C3E8EE" transform="scale(0.78125 0.78125)" d="M879.083 335.352C878.363 333.308 878.193 331.401 878.19 329.257C878.175 316.715 882.162 305.919 891.139 297.011C899.454 288.759 910.44 283.48 922.279 283.633C931.432 283.751 940.803 287.282 947.281 293.867C947.293 294.005 947.303 294.142 947.317 294.28C947.668 297.773 948.838 301.127 949.354 304.603C950.97 315.49 948.469 326.113 941.542 334.795Q940.979 335.513 940.381 336.202Q939.783 336.891 939.15 337.548Q938.518 338.206 937.854 338.831Q937.189 339.456 936.494 340.046Q935.798 340.637 935.074 341.192Q934.35 341.746 933.599 342.264Q932.847 342.781 932.071 343.26Q931.294 343.739 930.495 344.178Q929.695 344.617 928.874 345.015Q928.054 345.413 927.214 345.77Q926.374 346.126 925.517 346.439Q924.661 346.753 923.789 347.022Q922.918 347.292 922.034 347.518Q921.15 347.743 920.256 347.924Q919.362 348.104 918.46 348.239Q917.558 348.375 916.65 348.464C902.169 349.964 891.635 344.159 880.315 335.906C879.644 335.416 879.928 335.577 879.083 335.352Z"/>
	<path fill="#D5B5E7" transform="scale(0.78125 0.78125)" d="M971.555 182.891C978.752 202.003 988.84 218.602 1000.79 235.082C990.898 241.274 981.093 247.476 971.663 254.364L971.378 254.308C963.787 258.98 956.471 264.082 949.056 269.024L946.401 267.704C940.107 263.483 932.944 261.241 925.581 259.71C907.231 257.192 889.334 261.674 874.496 272.908C861.032 283.101 851.984 299.474 849.89 316.178Q849.675 318.032 849.57 319.896Q849.464 321.76 849.468 323.627Q849.472 325.494 849.585 327.357Q849.698 329.22 849.92 331.074Q850.142 332.928 850.473 334.765Q850.803 336.602 851.241 338.417Q851.678 340.232 852.221 342.018Q852.764 343.804 853.411 345.555C838.299 358.696 824.703 373.981 810.115 387.762C794.334 390.256 780.513 395.626 770.756 408.975C765.412 416.286 762.7 424.669 761.126 433.508C726.156 466.305 692.576 500.957 658.692 534.896L631.206 562.446C627.503 566.156 623.517 571.11 619.303 574.162L619.268 574.401C611.208 580.3 604.812 589.128 597.315 595.85L596.961 595.936L589.187 603.857C592.116 607.12 595.17 610.23 598.268 613.33C601.213 616.218 604.257 619.054 606.986 622.148L569.948 661.195L560.745 652.163L560.149 651.983L556.755 648.384C553.411 644.665 549.57 641.241 545.999 637.73C543.809 635.628 541.79 633.272 539.728 631.041C537.399 628.461 534.937 625.981 532.541 623.462L532.204 623.292C531.018 621.866 529.67 620.545 528.397 619.195L524.809 615.758C521.318 611.948 517.498 608.444 513.757 604.883C525.036 593.667 536.684 582.82 547.787 571.429L553.288 565.687C547.005 561.221 541.238 553.916 535.893 548.276C545.515 538.57 555.447 528.863 565.751 519.883C574.508 505.861 581.946 490.86 590.525 476.66C610.352 442.494 635.9 409.973 662.612 380.962Q673.33 369.621 684.356 358.58C703.307 338.76 724.408 320.194 745.83 303.098C804.834 256.007 868.999 220.087 939.508 193.242L948.146 190.201C955.896 187.633 963.585 184.701 971.555 182.891Z"/>
	<path fill="#FEFEFE" transform="scale(0.78125 0.78125)" d="M642.403 427.687C643.867 427.555 645.555 427.323 647.012 427.561C648.934 427.876 650.862 429.135 652.003 430.695C653.406 432.612 653.74 434.976 653.231 437.269C652.375 441.117 650.156 442.789 647.008 444.71C646.333 444.811 645.678 444.914 644.994 444.913C642.633 444.91 640.463 444.208 638.828 442.452C637.161 440.662 636.733 438.443 636.971 436.058C637.367 432.075 639.502 430.06 642.403 427.687Z"/>
	<path fill="#B12DD2" transform="scale(0.78125 0.78125)" d="M971.555 182.891C978.752 202.003 988.84 218.602 1000.79 235.082C990.898 241.274 981.093 247.476 971.663 254.364L971.378 254.308C961.829 241.463 952.496 228.568 946.542 213.594C943.884 206.912 942.059 199.956 939.508 193.242L948.146 190.201C955.896 187.633 963.585 184.701 971.555 182.891Z"/>
	<path fill="#FEFEFE" transform="scale(0.78125 0.78125)" d="M907.578 217.64C908.492 217.561 909.418 217.483 910.336 217.523C912.36 217.612 914.381 218.77 915.693 220.286C916.579 221.31 917.163 222.58 916.975 223.957C916.153 229.979 903.386 233.962 898.526 236.094C827.495 267.267 764.892 313.164 709.998 367.627C699.208 378.332 689.145 389.932 679.158 401.383C674.201 407.066 669.135 414.447 663.134 418.958C661.647 418.935 660.276 418.851 658.865 418.334C656.746 417.557 654.498 416.139 653.621 413.96C652.726 411.738 653.263 409.222 654.304 407.148C658.755 398.291 673.34 384.694 680.648 376.817C735.178 318.039 799.257 267.771 871.908 233.245C883.469 227.751 895.304 221.366 907.578 217.64Z"/>
	<path fill="#A66ACE" transform="scale(0.78125 0.78125)" d="M565.751 519.883L569.628 523.889C585.3 539.949 602.627 559.739 619.303 574.162L619.268 574.401C611.208 580.3 604.812 589.128 597.315 595.85L596.961 595.936L589.187 603.857C592.116 607.12 595.17 610.23 598.268 613.33C601.213 616.218 604.257 619.054 606.986 622.148L569.948 661.195L560.745 652.163L560.149 651.983L556.755 648.384C553.411 644.665 549.57 641.241 545.999 637.73C543.809 635.628 541.79 633.272 539.728 631.041C537.399 628.461 534.937 625.981 532.541 623.462L532.204 623.292C531.018 621.866 529.67 620.545 528.397 619.195L524.809 615.758C521.318 611.948 517.498 608.444 513.757 604.883C525.036 593.667 536.684 582.82 547.787 571.429L553.288 565.687C547.005 561.221 541.238 553.916 535.893 548.276C545.515 538.57 555.447 528.863 565.751 519.883Z"/>
	<path fill="#6C3D9B" transform="scale(0.78125 0.78125)" d="M561.705 575.88C564.559 578.554 567.575 581.169 570.154 584.108Q557.808 596.543 545.741 609.249C541.316 613.933 537.138 618.959 532.541 623.462L532.204 623.292C531.018 621.866 529.67 620.545 528.397 619.195L524.809 615.758C536.68 603.925 551.349 589.003 561.705 575.88Z"/>
	<path fill="#B12DD2" transform="scale(0.78125 0.78125)" d="M553.288 565.687C556.143 567.729 560.032 572.732 561.705 575.88C551.349 589.003 536.68 603.925 524.809 615.758C521.318 611.948 517.498 608.444 513.757 604.883C525.036 593.667 536.684 582.82 547.787 571.429L553.288 565.687Z"/>
	<defs>
		<linearGradient id="gradient_3" gradientUnits="userSpaceOnUse" x1="589.1778" y1="631.40295" x2="555.90521" y2="618.4162">
			<stop offset="0" stop-color="#3B217D"/>
			<stop offset="1" stop-color="#7145B7"/>
		</linearGradient>
	</defs>
	<path fill="url(#gradient_3)" transform="scale(0.78125 0.78125)" d="M545.999 637.73Q564.115 617.126 583.119 597.338C585.257 599.404 587.205 601.644 589.187 603.857C592.116 607.12 595.17 610.23 598.268 613.33C601.213 616.218 604.257 619.054 606.986 622.148L569.948 661.195L560.745 652.163L560.149 651.983L556.755 648.384C553.411 644.665 549.57 641.241 545.999 637.73Z"/>
	<path fill="#4E5789" transform="scale(0.78125 0.78125)" d="M598.268 613.33C601.213 616.218 604.257 619.054 606.986 622.148L569.948 661.195L560.745 652.163Q571.328 640.96 582.196 630.032C587.618 624.608 593.49 619.334 598.268 613.33Z"/>
	<path fill="#B12DD2" transform="scale(0.78125 0.78125)" d="M569.628 523.889C585.3 539.949 602.627 559.739 619.303 574.162L619.268 574.401C611.208 580.3 604.812 589.128 597.315 595.85L596.961 595.936C581.206 578.782 564.723 562.41 549.114 545.082Q559.586 534.694 569.628 523.889Z"/>
	<path fill="#FAD25D" transform="scale(0.78125 0.78125)" d="M135.922 372.444C124.292 355.388 117.207 323.359 115.561 302.9C111.66 254.41 128.686 206.572 160.108 169.756Q161.578 168.062 163.088 166.405Q164.599 164.748 166.149 163.128Q167.7 161.508 169.29 159.927Q170.879 158.345 172.507 156.803Q174.135 155.261 175.8 153.759Q177.465 152.257 179.166 150.796Q180.867 149.335 182.603 147.916Q184.34 146.497 186.11 145.121Q187.88 143.745 189.684 142.413Q191.487 141.081 193.323 139.793Q195.158 138.505 197.025 137.262Q198.891 136.019 200.787 134.822Q202.683 133.626 204.608 132.476Q206.533 131.325 208.485 130.223Q210.437 129.12 212.416 128.065Q214.395 127.01 216.398 126.004Q218.402 124.998 220.43 124.041Q222.458 123.085 224.508 122.177Q226.559 121.27 228.631 120.414Q230.703 119.557 232.795 118.751Q234.888 117.945 236.999 117.191Q239.11 116.436 241.24 115.734Q243.369 115.031 245.514 114.381Q247.66 113.73 249.821 113.132Q251.982 112.534 254.157 111.99Q256.332 111.445 258.519 110.953Q260.707 110.461 262.906 110.023Q265.105 109.585 267.314 109.201Q269.522 108.817 271.74 108.487Q273.958 108.157 276.183 107.881Q278.408 107.605 280.639 107.383Q282.87 107.162 285.106 106.995Q288.285 106.762 291.47 106.64Q294.655 106.519 297.842 106.509Q301.029 106.5 304.215 106.603Q307.4 106.706 310.58 106.92Q313.76 107.135 316.931 107.461Q320.101 107.788 323.258 108.225Q326.415 108.663 329.555 109.211Q332.695 109.76 335.814 110.418Q338.932 111.077 342.026 111.844Q345.119 112.612 348.184 113.488Q351.248 114.364 354.28 115.347Q357.312 116.331 360.307 117.42Q363.303 118.509 366.258 119.703Q369.213 120.897 372.125 122.194Q375.036 123.491 377.901 124.89Q380.765 126.288 383.578 127.787C390.594 131.511 397.822 135.657 403.862 140.847C439.776 163.498 466.937 209.672 476.223 250.382C479.94 266.677 481.091 283.166 480.639 299.839Q480.52 302.143 480.344 304.443Q480.167 306.742 479.934 309.037Q479.701 311.332 479.411 313.621Q479.122 315.909 478.775 318.19Q478.429 320.47 478.026 322.741Q477.624 325.013 477.165 327.273Q476.706 329.534 476.192 331.782Q475.677 334.031 475.107 336.266Q474.537 338.501 473.912 340.721Q473.287 342.942 472.607 345.146Q471.927 347.35 471.192 349.537Q470.458 351.723 469.67 353.891Q468.882 356.059 468.04 358.207Q467.199 360.354 466.304 362.48Q465.41 364.606 464.463 366.71Q463.516 368.813 462.518 370.892Q461.519 372.972 460.47 375.025Q459.42 377.079 458.32 379.107Q457.22 381.134 456.07 383.133Q454.92 385.133 453.72 387.103Q452.521 389.073 451.274 391.013Q450.026 392.953 448.731 394.862Q447.436 396.771 446.094 398.646Q444.752 400.522 443.364 402.364Q441.976 404.207 440.543 406.014Q439.11 407.821 437.632 409.592Q436.155 411.363 434.634 413.097Q433.113 414.831 431.55 416.527Q429.987 418.223 428.382 419.879Q426.777 421.536 425.132 423.152Q423.487 424.769 421.802 426.344Q420.117 427.919 418.394 429.452Q416.74 430.91 415.051 432.328Q413.362 433.745 411.638 435.12Q409.914 436.495 408.157 437.827Q406.4 439.159 404.611 440.447Q402.821 441.735 401 442.979Q399.18 444.223 397.329 445.421Q395.478 446.619 393.598 447.772Q391.718 448.924 389.811 450.03Q387.903 451.135 385.968 452.193Q384.034 453.251 382.074 454.261Q380.114 455.271 378.13 456.232Q376.145 457.194 374.138 458.106Q372.131 459.018 370.101 459.88Q368.072 460.742 366.022 461.554Q363.972 462.365 361.903 463.126Q359.833 463.887 357.746 464.597Q355.658 465.306 353.554 465.964Q351.45 466.622 349.33 467.228Q347.21 467.833 345.075 468.386Q342.941 468.939 340.794 469.44Q338.646 469.94 336.487 470.387Q334.328 470.834 332.159 471.228Q329.99 471.621 327.811 471.961Q325.633 472.301 323.447 472.587Q321.261 472.873 319.068 473.105Q316.876 473.337 314.678 473.515Q312.48 473.693 310.279 473.816Q308.078 473.939 305.874 474.008Q303.67 474.078 301.466 474.092Q299.261 474.107 297.057 474.067Q294.852 474.027 292.65 473.933Q290.447 473.839 288.247 473.69C261.763 472.153 234.893 463.754 211.861 450.655C180.218 431.155 152.772 406.092 135.922 372.444Z"/>
	<path fill="#946263" transform="scale(0.78125 0.78125)" d="M171.853 318.934C171.656 316.77 171.519 314.413 172.001 312.285C172.961 308.051 175.86 304.208 179.638 302.088Q180.32 301.706 181.037 301.395Q181.755 301.085 182.5 300.849Q183.245 300.613 184.01 300.454Q184.776 300.295 185.553 300.215Q186.331 300.135 187.112 300.134Q187.894 300.133 188.672 300.212Q189.449 300.291 190.215 300.449Q190.98 300.606 191.726 300.841C196.47 302.331 199.432 305.64 201.727 309.856C197.233 305.758 192.897 302.789 186.532 303.034C182.705 303.182 179.186 304.744 176.603 307.585C173.582 310.908 172.535 314.614 171.853 318.934Z"/>
	<path fill="#946263" transform="scale(0.78125 0.78125)" d="M350.635 209.121Q350.358 207.672 350.269 206.2Q350.18 204.728 350.282 203.257Q350.383 201.785 350.672 200.339Q350.961 198.893 351.434 197.496Q351.614 196.965 351.82 196.444Q352.026 195.923 352.259 195.413Q352.491 194.903 352.749 194.405Q353.006 193.908 353.289 193.424Q353.571 192.94 353.878 192.471Q354.185 192.002 354.515 191.549Q354.844 191.096 355.197 190.66Q355.549 190.224 355.923 189.807Q356.297 189.389 356.691 188.991Q357.086 188.593 357.5 188.216Q357.914 187.838 358.347 187.482Q358.779 187.126 359.229 186.792Q359.679 186.458 360.146 186.147Q360.612 185.837 361.093 185.55Q361.575 185.263 362.07 185.001Q362.565 184.739 363.073 184.502Q363.557 184.274 364.051 184.07Q364.546 183.867 365.05 183.688Q365.554 183.51 366.066 183.357Q366.579 183.205 367.098 183.078Q367.618 182.951 368.143 182.851Q368.668 182.75 369.198 182.677Q369.728 182.603 370.26 182.556Q370.793 182.509 371.327 182.489Q371.862 182.468 372.396 182.475Q372.931 182.482 373.465 182.516Q373.998 182.549 374.53 182.61Q375.061 182.67 375.589 182.757Q376.116 182.845 376.639 182.958Q377.161 183.072 377.677 183.212Q378.194 183.352 378.702 183.517Q379.211 183.683 379.71 183.874C385.91 186.202 390.099 190.782 392.852 196.683C387.935 191.177 382.314 186.733 374.621 186.298Q374.065 186.27 373.509 186.27Q372.952 186.269 372.397 186.297Q371.841 186.324 371.287 186.38Q370.734 186.435 370.183 186.518Q369.633 186.602 369.088 186.712Q368.543 186.823 368.003 186.961Q367.464 187.098 366.933 187.263Q366.401 187.428 365.879 187.619Q365.356 187.81 364.844 188.027Q364.331 188.244 363.831 188.486Q363.33 188.729 362.842 188.996Q362.354 189.263 361.879 189.555Q361.405 189.846 360.947 190.161Q360.488 190.476 360.045 190.813Q359.603 191.151 359.178 191.51Q358.753 191.869 358.346 192.249C353.365 196.916 351.588 202.531 350.635 209.121Z"/>
	<path fill="#946263" transform="scale(0.78125 0.78125)" d="M245.097 253.361C244.906 250.922 244.675 248.447 244.958 246.008Q245.029 245.386 245.13 244.768Q245.232 244.15 245.364 243.538Q245.497 242.926 245.659 242.321Q245.822 241.716 246.015 241.121Q246.207 240.525 246.429 239.939Q246.651 239.354 246.902 238.78Q247.153 238.207 247.433 237.646Q247.712 237.086 248.019 236.54Q248.326 235.994 248.66 235.464Q248.993 234.934 249.353 234.422Q249.713 233.909 250.098 233.416Q250.482 232.922 250.891 232.448Q251.3 231.973 251.733 231.52Q252.165 231.067 252.619 230.636Q253.073 230.205 253.548 229.797Q254.023 229.39 254.518 229.006C259.489 225.198 265.901 223.218 272.147 224.146C279.538 225.244 284.673 229.58 289.026 235.372C288.791 235.269 288.554 235.169 288.321 235.063C285.824 233.923 283.725 231.771 281.351 230.363C275.838 227.093 267.876 226.877 261.95 229.017C255.604 231.309 250.634 236.296 247.82 242.365C246.212 245.832 245.499 249.582 245.097 253.361Z"/>
	<path fill="#946263" transform="scale(0.78125 0.78125)" d="M167.911 195.903C168.246 194.161 168.808 192.499 169.459 190.852C172.48 183.21 179.073 176.871 186.584 173.666Q187.214 173.391 187.857 173.148Q188.5 172.905 189.154 172.694Q189.808 172.483 190.472 172.305Q191.136 172.127 191.808 171.982Q192.479 171.838 193.158 171.727Q193.836 171.615 194.519 171.538Q195.202 171.461 195.888 171.418Q196.574 171.375 197.261 171.366Q197.948 171.357 198.635 171.382Q199.322 171.407 200.006 171.466Q200.691 171.526 201.372 171.619Q202.053 171.713 202.728 171.84Q203.404 171.967 204.072 172.127Q204.74 172.288 205.4 172.482Q206.059 172.675 206.708 172.902Q207.357 173.128 207.994 173.386C216.446 176.811 221.781 183.417 225.186 191.658L224.611 191.078C222.373 188.774 220.782 185.777 218.67 183.334C214.033 177.971 205.656 175.105 198.739 174.961C189.812 174.774 181.157 178.647 174.98 185.064C172.441 187.701 170.607 191.492 168.986 194.749C168.59 195.544 168.745 195.26 167.911 195.903Z"/>
	<path fill="#946263" transform="scale(0.78125 0.78125)" d="M197.185 380.571Q197.59 379.059 198.128 377.59C201.166 369.171 207.15 362.309 215.287 358.496Q216.018 358.15 216.764 357.841Q217.511 357.532 218.272 357.26Q219.034 356.989 219.807 356.755Q220.581 356.521 221.365 356.326Q222.15 356.131 222.943 355.976Q223.736 355.82 224.536 355.703Q225.335 355.587 226.14 355.51Q226.945 355.434 227.752 355.397Q228.559 355.361 229.368 355.364Q230.176 355.368 230.983 355.412Q231.79 355.455 232.594 355.539Q233.398 355.622 234.196 355.746Q234.995 355.869 235.787 356.032Q236.579 356.194 237.361 356.396Q238.144 356.598 238.916 356.838Q239.687 357.079 240.446 357.357C249.69 360.781 255.62 367.366 259.717 376.122C251.266 366.556 245.11 360.33 231.561 359.532Q230.689 359.476 229.815 359.463Q228.94 359.45 228.067 359.481Q227.193 359.512 226.322 359.586Q225.451 359.66 224.585 359.777Q223.719 359.894 222.859 360.054Q222 360.214 221.149 360.417Q220.299 360.619 219.46 360.864Q218.62 361.108 217.794 361.394Q216.968 361.68 216.157 362.006Q215.346 362.333 214.552 362.699Q213.759 363.066 212.984 363.471Q212.21 363.876 211.456 364.32Q210.703 364.763 209.972 365.243Q209.242 365.723 208.536 366.239Q207.83 366.755 207.151 367.305Q206.471 367.856 205.82 368.439C201.782 372.053 200.403 376.495 197.185 380.571Z"/>
	<path fill="#FFEFA9" transform="scale(0.78125 0.78125)" d="M300 111.59C307.735 110.258 320.013 111.848 327.658 113.644C320.882 112.998 314.081 112.267 307.269 112.198C262.09 111.737 212.753 130.919 180.464 162.646C171.111 171.837 161.48 182.094 154.144 192.994C136.755 218.833 126.292 254.725 126.002 285.851C125.9 290.9 125.369 296.678 126.281 301.625C126.67 303.733 126.753 305.717 126.802 307.852L126.382 308.623L126.83 308.098L126.101 307.418L127.003 307.277L127.129 306.516L126.103 306.041C126.029 305.709 125.939 305.38 125.882 305.045C125.285 301.587 125.554 297.414 125.451 293.879C124.56 263.331 132.728 227.519 147.966 201.009C154.988 188.793 164.015 178.472 173.57 168.177C178.641 162.713 184.205 156.378 190.171 151.927C195.079 148.265 202.09 145.135 206.21 140.755C208.345 138.485 209.055 135.023 211.216 132.624C217.286 125.887 221.292 130.99 226.037 129.758C232.738 128.018 242.866 122.728 250.251 120.18C265.892 114.784 283.566 112.846 300 111.59Z"/>
	<path fill="#E3A347" transform="scale(0.78125 0.78125)" d="M298.944 135.479C300.981 135.377 303.293 135.119 305.306 135.454C308.521 135.989 312.008 138.926 313.617 141.665C315.21 144.376 315.746 147.734 314.795 150.763C313.535 154.776 310.432 157.113 306.792 158.858C304.964 159.129 303.055 159.474 301.218 159.135C297.71 158.487 294.375 156.401 292.53 153.317C290.784 150.398 290.418 147.003 291.364 143.753C292.542 139.709 295.479 137.484 298.944 135.479Z"/>
	<path fill="#946263" transform="scale(0.78125 0.78125)" d="M297.355 323.656C298.135 313.874 303.319 303.634 309.197 295.949Q310.143 294.724 311.148 293.547Q312.154 292.37 313.215 291.244Q314.277 290.118 315.393 289.045Q316.509 287.972 317.676 286.956Q318.843 285.939 320.059 284.981Q321.275 284.023 322.536 283.126Q323.797 282.229 325.101 281.395Q326.405 280.561 327.748 279.792Q329.091 279.023 330.47 278.32Q331.849 277.618 333.262 276.985Q334.674 276.351 336.115 275.788Q337.557 275.225 339.024 274.733Q340.492 274.241 341.981 273.822Q343.471 273.403 344.98 273.057Q346.488 272.712 348.012 272.441Q349.536 272.17 351.071 271.974C370.394 269.525 387.207 276.706 402.175 288.326L402.344 288.766L400.5 292.612L400.25 292.557C387.883 281.402 371.761 276.164 355.19 277.03Q353.645 277.097 352.104 277.24Q350.564 277.383 349.033 277.603Q347.502 277.822 345.983 278.117Q344.465 278.413 342.963 278.783Q341.461 279.153 339.979 279.597Q338.497 280.041 337.039 280.559Q335.582 281.076 334.151 281.665Q332.721 282.253 331.321 282.913Q329.922 283.572 328.557 284.299Q327.191 285.027 325.864 285.822Q324.537 286.616 323.251 287.476Q321.964 288.335 320.722 289.257Q319.48 290.18 318.285 291.162Q317.09 292.145 315.946 293.186Q314.801 294.226 313.71 295.323Q312.618 296.419 311.582 297.568C304.78 305.153 300.354 314.15 297.713 323.956L297.355 323.656Z"/>
	<path fill="#E3A347" transform="scale(0.78125 0.78125)" d="M171.853 318.934C172.535 314.614 173.582 310.908 176.603 307.585C179.186 304.744 182.705 303.182 186.532 303.034C192.897 302.789 197.233 305.758 201.727 309.856C203.22 311.27 203.569 313.41 203.621 315.443C203.734 319.785 202.244 323.827 199.167 326.911C195.767 330.319 190.881 332.027 186.108 331.798C181.928 331.598 177.502 329.948 174.807 326.636C173.382 324.885 171.547 321.218 171.853 318.934Z"/>
	<path fill="#E3A347" transform="scale(0.78125 0.78125)" d="M350.635 209.121C351.588 202.531 353.365 196.916 358.346 192.249Q358.753 191.869 359.178 191.51Q359.603 191.151 360.045 190.813Q360.488 190.476 360.947 190.161Q361.405 189.846 361.879 189.555Q362.354 189.263 362.842 188.996Q363.33 188.729 363.831 188.486Q364.331 188.244 364.844 188.027Q365.356 187.81 365.879 187.619Q366.401 187.428 366.933 187.263Q367.464 187.098 368.003 186.961Q368.543 186.823 369.088 186.712Q369.633 186.602 370.183 186.518Q370.734 186.435 371.287 186.38Q371.841 186.324 372.397 186.297Q372.952 186.269 373.509 186.27Q374.065 186.27 374.621 186.298C382.314 186.733 387.935 191.177 392.852 196.683C395.099 199.234 395.193 204.002 395.013 207.278C394.706 212.866 392.299 217.909 388.033 221.577Q387.591 221.955 387.131 222.311Q386.671 222.666 386.194 222.998Q385.717 223.33 385.223 223.637Q384.73 223.945 384.222 224.227Q383.714 224.509 383.192 224.766Q382.67 225.022 382.136 225.252Q381.602 225.482 381.058 225.685Q380.513 225.888 379.958 226.063Q379.404 226.238 378.842 226.385Q378.279 226.532 377.71 226.651Q377.141 226.769 376.567 226.859Q375.993 226.949 375.415 227.01Q374.836 227.071 374.256 227.103Q373.676 227.135 373.094 227.137Q372.513 227.14 371.932 227.113Q371.352 227.087 370.773 227.031C365.039 226.476 358.409 223.554 354.788 218.974C352.877 216.557 350.62 212.257 350.635 209.121Z"/>
	<path fill="#E3A347" transform="scale(0.78125 0.78125)" d="M245.097 253.361C245.499 249.582 246.212 245.832 247.82 242.365C250.634 236.296 255.604 231.309 261.95 229.017C267.876 226.877 275.838 227.093 281.351 230.363C283.725 231.771 285.824 233.923 288.321 235.063C288.554 235.169 288.791 235.269 289.026 235.372C292.826 239.599 293.383 245.118 293.124 250.57Q293.101 251.146 293.05 251.72Q292.999 252.293 292.919 252.864Q292.839 253.435 292.731 254.001Q292.623 254.566 292.486 255.126Q292.35 255.686 292.186 256.238Q292.022 256.791 291.83 257.334Q291.639 257.877 291.421 258.411Q291.202 258.944 290.957 259.465Q290.713 259.987 290.442 260.496Q290.172 261.004 289.876 261.499Q289.581 261.994 289.261 262.473Q288.941 262.952 288.598 263.415Q288.255 263.877 287.889 264.322Q287.523 264.767 287.135 265.193Q286.747 265.619 286.339 266.026Q285.93 266.432 285.502 266.817C280.554 271.253 273.778 273.4 267.179 272.936C260.777 272.485 253.556 269.472 249.474 264.366C247.534 261.939 244.771 256.491 245.097 253.361Z"/>
	<path fill="#E3A347" transform="scale(0.78125 0.78125)" d="M197.185 380.571C200.403 376.495 201.782 372.053 205.82 368.439Q206.471 367.856 207.151 367.305Q207.83 366.755 208.536 366.239Q209.242 365.723 209.972 365.243Q210.703 364.763 211.456 364.32Q212.21 363.876 212.984 363.471Q213.759 363.066 214.552 362.699Q215.346 362.333 216.157 362.006Q216.968 361.68 217.794 361.394Q218.62 361.108 219.46 360.864Q220.299 360.619 221.149 360.417Q222 360.214 222.859 360.054Q223.719 359.894 224.585 359.777Q225.451 359.66 226.322 359.586Q227.193 359.512 228.067 359.481Q228.94 359.45 229.815 359.463Q230.689 359.476 231.561 359.532C245.11 360.33 251.266 366.556 259.717 376.122C263.798 381.282 262.775 392.258 262.06 398.355C261.85 400.145 261.199 402.233 261.944 403.869L263 404.255C261.403 404.558 260.025 404.555 258.404 404.539C257.495 404.53 257.854 404.497 256.949 404.773C236.831 407.23 217.654 404.097 197.907 400.556L197.332 400.416C197.737 393.644 194.45 387.342 197.185 380.571Z"/>
	<path fill="#E3A347" transform="scale(0.78125 0.78125)" d="M167.911 195.903C168.745 195.26 168.59 195.544 168.986 194.749C170.607 191.492 172.441 187.701 174.98 185.064C181.157 178.647 189.812 174.774 198.739 174.961C205.656 175.105 214.033 177.971 218.67 183.334C220.782 185.777 222.373 188.774 224.611 191.078L225.186 191.658C228.438 197.62 228.173 205.658 226.281 212.036Q226.071 212.738 225.827 213.43Q225.583 214.121 225.305 214.8Q225.027 215.478 224.717 216.143Q224.406 216.807 224.063 217.455Q223.721 218.103 223.347 218.734Q222.973 219.365 222.568 219.976Q222.164 220.588 221.73 221.179Q221.296 221.77 220.834 222.339Q220.372 222.908 219.882 223.454Q219.393 224 218.877 224.521Q218.362 225.043 217.821 225.538Q217.281 226.033 216.717 226.502Q216.153 226.97 215.567 227.41Q214.98 227.851 214.373 228.262Q213.766 228.673 213.14 229.053Q212.513 229.434 211.869 229.784C204.683 233.645 196.041 234.096 188.308 231.69C180.966 229.405 174.615 224.418 171.038 217.562C168.068 211.866 165.352 202.807 167.654 196.473C167.726 196.277 167.826 196.093 167.911 195.903Z"/>
	<path fill="#E3A347" transform="scale(0.78125 0.78125)" d="M297.355 323.656L297.713 323.956C300.354 314.15 304.78 305.153 311.582 297.568Q312.618 296.419 313.71 295.323Q314.801 294.226 315.946 293.186Q317.09 292.145 318.285 291.162Q319.48 290.18 320.722 289.257Q321.964 288.335 323.251 287.476Q324.537 286.616 325.864 285.822Q327.191 285.027 328.557 284.299Q329.922 283.572 331.321 282.913Q332.721 282.253 334.151 281.665Q335.582 281.076 337.039 280.559Q338.497 280.041 339.979 279.597Q341.461 279.153 342.963 278.783Q344.465 278.413 345.983 278.117Q347.502 277.822 349.033 277.603Q350.564 277.383 352.104 277.24Q353.645 277.097 355.19 277.03C371.761 276.164 387.883 281.402 400.25 292.557C397.304 299.751 393.006 306.716 388.919 313.311Q387.314 315.945 385.637 318.533Q383.96 321.122 382.211 323.662Q380.463 326.203 378.644 328.694Q376.825 331.185 374.938 333.624Q373.05 336.063 371.096 338.449Q369.141 340.835 367.121 343.165Q365.101 345.495 363.016 347.768Q360.932 350.042 358.785 352.256Q356.638 354.47 354.431 356.624Q352.223 358.777 349.957 360.869Q347.69 362.96 345.366 364.987Q343.042 367.015 340.662 368.976Q338.283 370.938 335.849 372.833Q333.416 374.728 330.931 376.554Q328.446 378.38 325.911 380.137Q323.376 381.893 320.793 383.578L320.309 383.709C318.916 381.526 316.197 379.518 314.294 377.72C307.306 371.12 303.057 364.326 299.916 355.161C297.109 346.97 293.32 331.929 297.355 323.656Z"/>
	<path fill="#C37737" transform="scale(0.78125 0.78125)" d="M403.862 140.847C439.776 163.498 466.937 209.672 476.223 250.382C479.94 266.677 481.091 283.166 480.639 299.839Q480.52 302.143 480.344 304.443Q480.167 306.742 479.934 309.037Q479.701 311.332 479.411 313.621Q479.122 315.909 478.775 318.19Q478.429 320.47 478.026 322.741Q477.624 325.013 477.165 327.273Q476.706 329.534 476.192 331.782Q475.677 334.031 475.107 336.266Q474.537 338.501 473.912 340.721Q473.287 342.942 472.607 345.146Q471.927 347.35 471.192 349.537Q470.458 351.723 469.67 353.891Q468.882 356.059 468.04 358.207Q467.199 360.354 466.304 362.48Q465.41 364.606 464.463 366.71Q463.516 368.813 462.518 370.892Q461.519 372.972 460.47 375.025Q459.42 377.079 458.32 379.107Q457.22 381.134 456.07 383.133Q454.92 385.133 453.72 387.103Q452.521 389.073 451.274 391.013Q450.026 392.953 448.731 394.862Q447.436 396.771 446.094 398.646Q444.752 400.522 443.364 402.364Q441.976 404.207 440.543 406.014Q439.11 407.821 437.632 409.592Q436.155 411.363 434.634 413.097Q433.113 414.831 431.55 416.527Q429.987 418.223 428.382 419.879Q426.777 421.536 425.132 423.152Q423.487 424.769 421.802 426.344Q420.117 427.919 418.394 429.452Q416.74 430.91 415.051 432.328Q413.362 433.745 411.638 435.12Q409.914 436.495 408.157 437.827Q406.4 439.159 404.611 440.447Q402.821 441.735 401 442.979Q399.18 444.223 397.329 445.421Q395.478 446.619 393.598 447.772Q391.718 448.924 389.811 450.03Q387.903 451.135 385.968 452.193Q384.034 453.251 382.074 454.261Q380.114 455.271 378.13 456.232Q376.145 457.194 374.138 458.106Q372.131 459.018 370.101 459.88Q368.072 460.742 366.022 461.554Q363.972 462.365 361.903 463.126Q359.833 463.887 357.746 464.597Q355.658 465.306 353.554 465.964Q351.45 466.622 349.33 467.228Q347.21 467.833 345.075 468.386Q342.941 468.939 340.794 469.44Q338.646 469.94 336.487 470.387Q334.328 470.834 332.159 471.228Q329.99 471.621 327.811 471.961Q325.633 472.301 323.447 472.587Q321.261 472.873 319.068 473.105Q316.876 473.337 314.678 473.515Q312.48 473.693 310.279 473.816Q308.078 473.939 305.874 474.008Q303.67 474.078 301.466 474.092Q299.261 474.107 297.057 474.067Q294.852 474.027 292.65 473.933Q290.447 473.839 288.247 473.69C261.763 472.153 234.893 463.754 211.861 450.655C180.218 431.155 152.772 406.092 135.922 372.444C156.658 384.247 174.226 393.582 197.332 400.416L197.907 400.556C217.654 404.097 236.831 407.23 256.949 404.773C257.854 404.497 257.495 404.53 258.404 404.539C260.025 404.555 261.403 404.558 263 404.255Q266.761 403.57 270.49 402.732Q274.22 401.894 277.912 400.903Q281.604 399.913 285.253 398.771Q288.901 397.63 292.499 396.34Q296.098 395.05 299.64 393.613Q303.183 392.176 306.663 390.596Q310.144 389.015 313.557 387.292Q316.97 385.57 320.309 383.709L320.793 383.578Q323.376 381.893 325.911 380.137Q328.446 378.38 330.931 376.554Q333.416 374.728 335.849 372.833Q338.283 370.938 340.662 368.976Q343.042 367.015 345.366 364.987Q347.69 362.96 349.957 360.869Q352.223 358.777 354.431 356.624Q356.638 354.47 358.785 352.256Q360.932 350.042 363.016 347.768Q365.101 345.495 367.121 343.165Q369.141 340.835 371.096 338.449Q373.05 336.063 374.938 333.624Q376.825 331.185 378.644 328.694Q380.463 326.203 382.211 323.662Q383.96 321.122 385.637 318.533Q387.314 315.945 388.919 313.311C393.006 306.716 397.304 299.751 400.25 292.557L400.5 292.612L402.344 288.766L402.175 288.326C403.416 286.185 404.452 283.936 405.47 281.683Q406.168 280.1 406.833 278.504Q407.497 276.907 408.13 275.297Q408.762 273.687 409.36 272.064Q409.959 270.441 410.525 268.807Q411.09 267.172 411.622 265.526Q412.153 263.88 412.651 262.224Q413.149 260.567 413.612 258.901Q414.076 257.234 414.505 255.559Q414.934 253.883 415.329 252.199Q415.724 250.515 416.084 248.823Q416.444 247.132 416.769 245.433Q417.095 243.734 417.385 242.029Q417.675 240.324 417.931 238.613Q418.186 236.902 418.406 235.186Q418.626 233.471 418.811 231.751Q418.995 230.031 419.145 228.308Q419.294 226.585 419.408 224.859Q419.522 223.133 419.6 221.405Q419.679 219.677 419.722 217.948Q419.765 216.218 419.772 214.489Q419.78 212.759 419.751 211.03Q419.723 209.3 419.66 207.572Q419.596 205.843 419.497 204.116Q419.398 202.389 419.263 200.665Q419.129 198.94 418.959 197.219Q418.789 195.498 418.583 193.78Q418.378 192.063 418.138 190.35Q417.897 188.637 417.622 186.929Q417.346 185.222 417.035 183.52Q416.725 181.819 416.379 180.124Q416.033 178.429 415.653 176.742Q415.273 175.054 414.858 173.375C412.078 162.227 407.911 151.577 403.862 140.847Z"/>
	<path fill="#774452" transform="scale(0.78125 0.78125)" d="M402.344 288.766C414.957 302.28 421.828 318.499 421.072 337.201C420.922 340.913 420.549 344.81 419.601 348.413C418.88 347.534 420.03 340.621 420.064 338.929C420.42 320.737 413.001 305.319 400.5 292.612L402.344 288.766Z"/>
	<path fill="#774452" transform="scale(0.78125 0.78125)" d="M420.5 258.399C420.549 254.599 421.258 251.492 423.021 248.117Q423.258 247.66 423.519 247.216Q423.779 246.771 424.061 246.341Q424.343 245.91 424.646 245.494Q424.949 245.078 425.273 244.677Q425.597 244.277 425.94 243.893Q426.283 243.509 426.646 243.143Q427.008 242.778 427.388 242.43Q427.768 242.083 428.165 241.755Q428.562 241.427 428.975 241.12Q429.388 240.812 429.816 240.526Q430.243 240.239 430.685 239.975Q431.127 239.71 431.581 239.468Q432.035 239.226 432.501 239.006Q432.967 238.787 433.443 238.592Q433.92 238.396 434.405 238.225Q434.891 238.054 435.384 237.907C440.318 236.468 445.464 237.166 449.898 239.743C455.787 243.165 458.553 248.364 460.266 254.712C460.101 254.562 459.932 254.416 459.772 254.262C458.559 253.094 457.968 251.287 457.035 249.88C453.629 244.75 448.678 241.109 442.309 240.919C436.262 240.738 430.562 243.738 426.401 247.953C423.336 251.058 421.946 254.355 420.5 258.399Z"/>
	<path fill="#AF653D" transform="scale(0.78125 0.78125)" d="M359.719 416.85C361.803 416.525 363.597 416.901 365.583 417.606C368.379 418.6 370.756 420.617 372.016 423.324Q372.269 423.874 372.464 424.447Q372.659 425.02 372.794 425.609Q372.93 426.199 373.004 426.8Q373.078 427.401 373.09 428.006Q373.103 428.611 373.053 429.214Q373.003 429.817 372.892 430.412Q372.781 431.007 372.609 431.587Q372.437 432.167 372.207 432.727C370.651 436.512 367.896 438.334 364.247 439.814C361.359 439.746 358.503 439.409 355.957 437.94C353.052 436.263 350.779 433.483 350.006 430.19C349.37 427.482 349.785 424.614 351.319 422.277C353.21 419.396 356.377 417.489 359.719 416.85Z"/>
	<path fill="#AF653D" transform="scale(0.78125 0.78125)" d="M197.907 400.556C217.654 404.097 236.831 407.23 256.949 404.773L258.515 405.097L258.881 405.891C256.957 410.63 251.169 415.504 246.802 418.039C239.358 422.358 229.475 423.363 221.221 421.192C209.706 418.164 203.612 410.459 197.907 400.556Z"/>
	<path fill="#AF653D" transform="scale(0.78125 0.78125)" d="M420.5 258.399C421.946 254.355 423.336 251.058 426.401 247.953C430.562 243.738 436.262 240.738 442.309 240.919C448.678 241.109 453.629 244.75 457.035 249.88C457.968 251.287 458.559 253.094 459.772 254.262C459.932 254.416 460.101 254.562 460.266 254.712C461.208 256.978 460.153 261.228 459.276 263.5C457.415 268.318 452.802 272.319 448.078 274.252C442.932 276.358 437.186 276.078 432.17 273.779C426.321 271.099 423.236 266.406 421.146 260.569C420.884 259.838 420.637 259.164 420.5 258.399Z"/>
	<path fill="#AF653D" transform="scale(0.78125 0.78125)" d="M400.25 292.557L400.5 292.612C413.001 305.319 420.42 320.737 420.064 338.929C420.03 340.621 418.88 347.534 419.601 348.413C419.736 358.536 410.819 371.977 403.993 378.938C392.922 390.226 376.069 397.043 360.297 397.072C346.031 397.098 332.474 391.427 320.793 383.578Q323.376 381.893 325.911 380.137Q328.446 378.38 330.931 376.554Q333.416 374.728 335.849 372.833Q338.283 370.938 340.662 368.976Q343.042 367.015 345.366 364.987Q347.69 362.96 349.957 360.869Q352.223 358.777 354.431 356.624Q356.638 354.47 358.785 352.256Q360.932 350.042 363.016 347.768Q365.101 345.495 367.121 343.165Q369.141 340.835 371.096 338.449Q373.05 336.063 374.938 333.624Q376.825 331.185 378.644 328.694Q380.463 326.203 382.211 323.662Q383.96 321.122 385.637 318.533Q387.314 315.945 388.919 313.311C393.006 306.716 397.304 299.751 400.25 292.557Z"/>
	<path fill="#1B0845" transform="scale(0.78125 0.78125)" d="M480.639 299.839C483.214 295.746 503.898 282.565 509.158 279.272C524.134 269.898 539.148 260.285 554.51 251.561C626.878 210.46 722.907 168.482 806.25 160.54C834.274 157.87 862.226 159.005 889.689 165.369C907.27 169.443 923.25 175.792 939.166 184.292C941.936 185.772 946.463 187.501 948.146 190.201L939.508 193.242C868.999 220.087 804.834 256.007 745.83 303.098C724.408 320.194 703.307 338.76 684.356 358.58Q673.33 369.621 662.612 380.962C635.9 409.973 610.352 442.494 590.525 476.66C581.946 490.86 574.508 505.861 565.751 519.883C555.447 528.863 545.515 538.57 535.893 548.276C541.238 553.916 547.005 561.221 553.288 565.687L547.787 571.429C536.684 582.82 525.036 593.667 513.757 604.883C517.498 608.444 521.318 611.948 524.809 615.758L528.397 619.195C513.094 626.604 498.115 633.802 481.653 638.329C478.563 639.179 475.197 639.745 472.538 641.622C467.724 640.076 450.463 643.947 445.103 645.742C437.794 646.88 430.477 648.149 423.135 649.042C346.49 714.019 284.651 806 241.683 896.32C239.98 895.189 238.609 893.893 237.217 892.406C208.372 861.612 207.378 828.002 218.753 789.565C225.288 767.482 233.837 744.961 234.405 721.677C236.043 654.626 172.472 677.28 140.209 642.995C130.489 632.666 127.838 617.279 128.321 603.575C130.224 549.655 173.393 486.126 211.861 450.655C234.893 463.754 261.763 472.153 288.247 473.69Q290.447 473.839 292.65 473.933Q294.852 474.027 297.057 474.067Q299.261 474.107 301.466 474.092Q303.67 474.078 305.874 474.008Q308.078 473.939 310.279 473.816Q312.48 473.693 314.678 473.515Q316.876 473.337 319.068 473.105Q321.261 472.873 323.447 472.587Q325.633 472.301 327.811 471.961Q329.99 471.621 332.159 471.228Q334.328 470.834 336.487 470.387Q338.646 469.94 340.794 469.44Q342.941 468.939 345.075 468.386Q347.21 467.833 349.33 467.228Q351.45 466.622 353.554 465.964Q355.658 465.306 357.746 464.597Q359.833 463.887 361.903 463.126Q363.972 462.365 366.022 461.554Q368.072 460.742 370.101 459.88Q372.131 459.018 374.138 458.106Q376.145 457.194 378.13 456.232Q380.114 455.271 382.074 454.261Q384.034 453.251 385.968 452.193Q387.903 451.135 389.811 450.03Q391.718 448.924 393.598 447.772Q395.478 446.619 397.329 445.421Q399.18 444.223 401 442.979Q402.821 441.735 404.611 440.447Q406.4 439.159 408.157 437.827Q409.914 436.495 411.638 435.12Q413.362 433.745 415.051 432.328Q416.74 430.91 418.394 429.452Q420.117 427.919 421.802 426.344Q423.487 424.769 425.132 423.152Q426.777 421.536 428.382 419.879Q429.987 418.223 431.55 416.527Q433.113 414.831 434.634 413.097Q436.155 411.363 437.632 409.592Q439.11 407.821 440.543 406.014Q441.976 404.207 443.364 402.364Q444.752 400.522 446.094 398.646Q447.436 396.771 448.731 394.862Q450.026 392.953 451.274 391.013Q452.521 389.073 453.72 387.103Q454.92 385.133 456.07 383.133Q457.22 381.134 458.32 379.107Q459.42 377.079 460.47 375.025Q461.519 372.972 462.518 370.892Q463.516 368.813 464.463 366.71Q465.41 364.606 466.304 362.48Q467.199 360.354 468.04 358.207Q468.882 356.059 469.67 353.891Q470.458 351.723 471.192 349.537Q471.927 347.35 472.607 345.146Q473.287 342.942 473.912 340.721Q474.537 338.501 475.107 336.266Q475.677 334.031 476.192 331.782Q476.706 329.534 477.165 327.273Q477.624 325.013 478.026 322.741Q478.429 320.47 478.775 318.19Q479.122 315.909 479.411 313.621Q479.701 311.332 479.934 309.037Q480.167 306.742 480.344 304.443Q480.52 302.143 480.639 299.839Z"/>
	<path fill="#FEFEFE" transform="scale(0.78125 0.78125)" d="M286.526 578.75C290.758 584.544 285.224 582.448 294.383 587.305C292.854 587.929 291.283 588.446 289.723 588.989C287.94 590.58 287.455 593.107 286.733 595.321L284.456 589.225L278.289 587.487L284.904 584.873L286.526 578.75Z"/>
	<path fill="#FEFEFE" transform="scale(0.78125 0.78125)" d="M187.202 509.359C188.282 511.188 188.707 513.673 189.295 515.724C190.575 516.241 192.777 516.869 193.649 517.903C194.154 518.5 190.686 520.711 189.969 521.33C188.295 522.775 188.053 525.274 187.615 527.34C186.052 525.448 185.738 522.916 185.183 520.574C183.56 520.046 181.408 519.743 180.392 518.376C181.508 517.507 182.591 516.588 183.713 515.729C185.72 514.191 186.15 512.629 186.907 510.288L187.202 509.359Z"/>
	<path fill="#FEFEFE" transform="scale(0.78125 0.78125)" d="M691.498 231.147C693.298 232.983 693.243 237.555 695.69 238.847C696.985 239.531 699.036 239.377 700.573 240.146L700.45 240.917C698.923 241.415 697.357 241.748 695.793 242.107C693.865 244.056 693.222 246.979 692.332 249.522L691.942 249.061C691.523 248.082 691.114 246.945 690.532 246.056C689.756 244.87 688.76 244.594 687.475 244.244C687.329 244.205 687.182 244.169 687.035 244.131L687.562 243.267C686.919 241.948 684.153 241.768 682.934 240.413C683.886 238.598 686.799 238.232 688.738 237.612C690.51 235.732 690.869 233.573 691.498 231.147Z"/>
	<path fill="#FAD25D" transform="scale(0.78125 0.78125)" d="M408.329 579.504C420.021 571.635 431.575 565.21 445.073 560.93C479.877 549.895 515.712 554.751 547.787 571.429C536.684 582.82 525.036 593.667 513.757 604.883C517.498 608.444 521.318 611.948 524.809 615.758L528.397 619.195C513.094 626.604 498.115 633.802 481.653 638.329C478.563 639.179 475.197 639.745 472.538 641.622C467.724 640.076 450.463 643.947 445.103 645.742C437.794 646.88 430.477 648.149 423.135 649.042C402.3 652.348 381.621 658.568 366.095 673.528Q367.558 670.675 369.145 667.889Q370.733 665.103 372.441 662.389Q374.149 659.676 375.975 657.04Q377.801 654.404 379.741 651.851Q381.682 649.299 383.732 646.834Q385.783 644.369 387.94 641.997Q390.097 639.624 392.356 637.349Q394.616 635.074 396.973 632.901C418.529 613.088 446.054 598.871 475.929 600.12Q472.384 597.484 468.732 594.998C449.862 582.343 431.18 575.04 408.329 579.504Z"/>
	<path fill="#B12DD2" transform="scale(0.78125 0.78125)" d="M412.51 527.536C411.669 528.05 411.432 528.145 410.515 528.3C410.332 524.765 414.593 518.323 416.301 515.047Q421.598 504.653 427.434 494.552Q433.271 484.452 439.63 474.672Q445.989 464.892 452.854 455.46Q459.719 446.029 467.07 436.971C502.187 394.311 563.267 344.752 620.438 339.436C643.498 337.291 666.398 343.693 684.356 358.58Q673.33 369.621 662.612 380.962C646.798 379.599 630.815 382.021 615.434 385.63C560.869 398.431 511.977 428.525 469.483 464.29C456.508 475.211 417.848 512.086 412.51 527.536Z"/>
	<path fill="#6B1390" transform="scale(0.78125 0.78125)" d="M412.51 527.536C417.848 512.086 456.508 475.211 469.483 464.29C511.977 428.525 560.869 398.431 615.434 385.63C630.815 382.021 646.798 379.599 662.612 380.962C635.9 409.973 610.352 442.494 590.525 476.66C582.197 474.027 573.084 473.832 564.41 473.915C524.247 474.3 485.758 488.359 450.493 506.677C437.725 513.309 425.361 521.228 412.51 527.536Z"/>
</svg>
