<svg width="111" height="281" viewBox="0 0 111 281" fill="none" xmlns="http://www.w3.org/2000/svg">
<path fill-rule="evenodd" clip-rule="evenodd" d="M75.0643 211.461H98.8491L68.4406 11.4793C67.5374 5.73964 66.032 0 56.9998 0H45.2579L13.3441 211.461H37.1289L37.129 211.46H31.1075L50.8655 45.3127H54.1651C58.9357 45.3127 61.6787 51.6387 62.1558 56.1484L76.2686 211.46H75.0642L75.0643 211.461Z" fill="white"/>
<ellipse cx="54.688" cy="143.491" rx="7.52685" ry="7.55216" fill="white"/>
<path d="M33.9828 90.6267C33.0242 90.4086 1 142.106 1 142.106H26.6533C23.8248 142.334 34.9414 90.8447 33.9828 90.6267Z" fill="white" stroke="white"/>
<path d="M76.3274 90.6267C77.286 90.4086 109.31 142.106 109.31 142.106H83.6569C86.4854 142.334 75.3687 90.8447 76.3274 90.6267Z" fill="white" stroke="white"/>
<path d="M73.7373 222.241C70.9793 219.923 67.7131 218.294 64.2064 217.486C63.8708 217.376 63.645 217.817 63.8708 218.037C71.382 225.227 67.2548 233.009 64.2064 236.518C62.033 239.023 58.9376 243.148 59.1634 248.68C59.1634 249.234 58.5989 249.678 58.1535 249.344C53.8915 247.132 50.978 242.264 50.1939 238.283C48.9582 239.498 48.5098 241.38 48.5098 243.038C48.5098 243.592 47.8386 244.035 47.2772 243.592C43.241 239.942 36.2912 227.553 47.5031 217.82C47.7257 217.597 47.5031 217.153 47.2773 217.263C43.8776 218.157 40.6805 219.698 37.8593 221.801C19.5847 235.961 31.4708 261.072 39.2078 269.367C40.2145 270.364 42.0084 269.7 42.0084 268.262C42.1214 265.273 43.0183 261.956 45.3704 259.744C47.1643 267.265 53.1419 275.808 61.6629 280.012C62.7826 280.566 64.128 279.682 64.0151 278.464C63.7956 268.174 70.485 261.623 76.3152 253.104C81.4743 245.474 84.8363 231.423 73.7373 222.241Z" fill="white"/>
</svg>
