<svg width="46" height="22" viewBox="0 0 46 22" fill="none" xmlns="http://www.w3.org/2000/svg">
<path d="M3.396 11.148H5.34C5.244 11.364 5.1 11.7 5.064 11.772C5.004 11.88 4.872 12 4.596 12H2.532V3.6H3.132C3.276 3.612 3.396 3.72 3.396 3.864V11.148ZM14.3377 3.6V11.016C14.3377 11.592 13.8697 12.024 13.3057 12.036V12.048H12.6457C12.0577 12.048 11.5777 11.604 11.5777 11.016V3.84C11.5897 3.708 11.6977 3.6 11.8297 3.6H12.4417V10.86C12.4417 11.112 12.6337 11.316 12.8857 11.316H13.0177C13.2697 11.316 13.4737 11.112 13.4737 10.86V3.6H14.3377ZM24.293 3.6V12H23.897C23.429 12 23.357 11.628 23.321 11.46L22.397 7.308V12H21.533V3.6H21.929C22.409 3.6 22.493 3.828 22.541 4.068L23.429 8.436V3.6H24.293ZM34.3323 12H33.3843L32.6283 6.216L31.8723 12H30.9243L32.1963 3.6H32.6643C33.0243 3.6 33.0843 3.828 33.1203 4.056L34.3323 12ZM43.6391 12H42.7751V8.928C42.7751 8.52 42.5591 8.388 42.3311 8.388H41.8751V12H41.0111V3.6H42.5831C43.1591 3.6 43.6391 4.068 43.6391 4.656V7.248C43.6391 7.248 43.6751 7.908 43.3271 7.992C43.6631 8.16 43.6391 8.784 43.6391 8.784V12ZM41.8751 7.572H42.3311C42.5591 7.572 42.7751 7.476 42.7751 7.092V4.836C42.7751 4.524 42.5591 4.404 42.3311 4.404H41.8751V7.572Z" fill="#FFFEFE"/>
<path d="M16.264 19.432H17.56C17.496 19.576 17.4 19.8 17.376 19.848C17.336 19.92 17.248 20 17.064 20H15.688V14.4H16.088C16.184 14.408 16.264 14.48 16.264 14.576V19.432ZM21.7984 20H21.1664L20.6624 16.144L20.1584 20H19.5264L20.3744 14.4H20.6864C20.9264 14.4 20.9664 14.552 20.9904 14.704L21.7984 20ZM25.819 17.2C26.155 17.304 26.147 17.656 26.147 17.656V19.296C26.139 19.688 25.827 20 25.435 20H24.395V14.4H25.435C25.827 14.4 26.139 14.712 26.147 15.104V16.744C26.147 16.744 26.155 17.096 25.819 17.2ZM25.571 16.608V15.264C25.571 15.056 25.427 14.976 25.275 14.976H24.963V16.936H25.275C25.427 16.936 25.571 16.864 25.571 16.608ZM25.571 19.136V17.784C25.571 17.536 25.427 17.464 25.275 17.464H24.963V19.432H25.275C25.427 19.432 25.571 19.352 25.571 19.136ZM30.7999 15.616C30.7519 15.64 30.5279 15.744 30.3759 15.808V15.16C30.3759 14.984 30.2399 14.848 30.0719 14.848C29.9039 14.848 29.7679 14.984 29.7679 15.16V15.696C29.7679 16.024 30.0159 16.448 30.0159 16.448L30.7039 17.744C30.9839 18.256 30.9599 18.632 30.9599 18.632V19.344C30.9599 19.736 30.6399 20.056 30.2399 20.056H29.8799C29.4959 20.04 29.1919 19.728 29.1839 19.344V18.768C29.1839 18.584 29.2719 18.496 29.3439 18.456C29.3919 18.44 29.6239 18.336 29.7679 18.272V19.248C29.7679 19.416 29.9039 19.552 30.0719 19.552C30.2399 19.552 30.3759 19.416 30.3759 19.24V18.6C30.3759 18.272 30.1279 17.84 30.1279 17.84L29.4399 16.552C29.1599 16.04 29.1839 15.664 29.1839 15.664V15.088C29.1839 14.696 29.5039 14.344 29.9039 14.344H30.2639C30.6479 14.352 30.9599 14.704 30.9599 15.088V15.304C30.9599 15.488 30.8719 15.576 30.7999 15.616Z" fill="#FFFEFE"/>
</svg>
