<svg width="556" height="221" viewBox="0 0 556 221" fill="none" xmlns="http://www.w3.org/2000/svg">
<path d="M192.658 205.884H206.956C206.249 207.475 205.19 209.95 204.926 210.48C204.484 211.276 203.514 212.16 201.484 212.16H186.304V150.28H190.717C191.776 150.368 192.658 151.164 192.658 152.225V205.884Z" fill="white"/>
<path d="M253.713 212.16H246.74L241.18 169.551L235.62 212.16H228.648L238.003 150.28H241.445C244.093 150.28 244.534 151.96 244.799 153.639L253.713 212.16Z" fill="white"/>
<path d="M298.067 181.22C301.774 182.369 301.686 186.259 301.686 186.259V204.381C301.597 208.712 298.155 212.16 293.831 212.16H282.358V150.28H293.831C298.155 150.28 301.597 153.728 301.686 158.059V176.181C301.686 176.181 301.774 180.071 298.067 181.22ZM295.331 174.678V159.827C295.331 157.529 293.742 156.645 292.066 156.645H288.624V178.303H292.066C293.742 178.303 295.331 177.507 295.331 174.678ZM295.331 202.613V187.673C295.331 184.933 293.742 184.137 292.066 184.137H288.624V205.884H292.066C293.742 205.884 295.331 205 295.331 202.613Z" fill="white"/>
<path d="M353.014 163.717C352.485 163.982 350.013 165.131 348.337 165.838V158.678C348.337 156.733 346.836 155.23 344.983 155.23C343.13 155.23 341.629 156.733 341.629 158.678V164.601C341.629 168.225 344.365 172.91 344.365 172.91L351.955 187.231C355.044 192.889 354.779 197.044 354.779 197.044V204.911C354.779 209.243 351.249 212.779 346.836 212.779H342.865C338.629 212.602 335.275 209.154 335.187 204.911V198.546C335.187 196.513 336.158 195.541 336.952 195.099C337.481 194.922 340.041 193.773 341.629 193.066V203.85C341.629 205.707 343.13 207.21 344.983 207.21C346.836 207.21 348.337 205.707 348.337 203.762V196.69C348.337 193.066 345.601 188.292 345.601 188.292L338.011 174.06C334.922 168.402 335.187 164.247 335.187 164.247V157.882C335.187 153.551 338.717 149.661 343.13 149.661H347.101C351.337 149.75 354.779 153.639 354.779 157.882V160.269C354.779 162.302 353.808 163.275 353.014 163.717Z" fill="white"/>
<path d="M14.6502 111.207H43.2444C41.8324 114.39 39.7143 119.34 39.1848 120.401C38.3022 121.992 36.3606 123.76 32.3009 123.76H1.94159V0H10.767C12.8851 0.176797 14.6502 1.768 14.6502 3.8896V111.207Z" fill="white"/>
<path d="M161.47 0V109.262C161.47 117.749 154.587 124.114 146.291 124.29V124.467H136.583C127.934 124.467 120.874 117.926 120.874 109.262V3.53601C121.05 1.5912 122.639 0 124.58 0H133.582V106.964C133.582 110.677 136.406 113.682 140.113 113.682H142.054C145.761 113.682 148.762 110.677 148.762 106.964V0H161.47Z" fill="white"/>
<path d="M293.782 0V123.76H287.958C281.074 123.76 280.015 118.279 279.485 115.804L265.894 54.6312V123.76H253.186V0H259.01C266.071 0 267.306 3.3592 268.012 6.89521L281.074 71.2504V0H293.782Z" fill="white"/>
<path d="M550.104 123.76H537.395V78.4992C537.395 72.488 534.218 70.5432 530.864 70.5432H524.157V123.76H511.448V0H534.571C543.043 0 550.104 6.89521 550.104 15.5584V53.7472C550.104 53.7472 550.633 63.4712 545.515 64.7088C550.457 67.184 550.104 76.3776 550.104 76.3776V123.76ZM524.157 58.5208H530.864C534.218 58.5208 537.395 57.1064 537.395 51.4488V18.2104C537.395 13.6136 534.218 11.8456 530.864 11.8456H524.157V58.5208Z" fill="white"/>
<path fill-rule="evenodd" clip-rule="evenodd" d="M413.653 123.775H427.576L409.776 6.71924C409.248 3.35962 408.367 0 403.08 0H396.207L377.526 123.775H391.449L391.449 123.775H387.924L399.489 26.5231H401.42C404.213 26.5231 405.818 30.226 406.098 32.8657L414.358 123.775H413.653L413.653 123.775Z" fill="white"/>
<ellipse cx="401.727" cy="83.9904" rx="4.40574" ry="4.42055" fill="white"/>
<path d="M389.607 53.047C389.046 52.9194 370.301 83.1796 370.301 83.1796H385.317C383.661 83.313 390.168 53.1747 389.607 53.047Z" fill="white" stroke="white"/>
<path d="M414.393 53.047C414.954 52.9194 433.699 83.1796 433.699 83.1796H418.683C420.339 83.313 413.832 53.1747 414.393 53.047Z" fill="white" stroke="white"/>
<path d="M390.55 130.086C392.165 128.729 394.076 127.775 396.129 127.303C396.325 127.238 396.458 127.496 396.325 127.625C391.929 131.834 394.345 136.389 396.129 138.442C397.401 139.909 399.213 142.323 399.081 145.561C399.081 145.886 399.411 146.145 399.672 145.95C402.167 144.655 403.872 141.806 404.331 139.476C405.054 140.187 405.317 141.288 405.317 142.259C405.317 142.583 405.71 142.843 406.038 142.583C408.401 140.446 412.469 133.195 405.906 127.498C405.776 127.367 405.906 127.107 406.038 127.172C408.028 127.695 409.9 128.597 411.551 129.828C422.248 138.116 415.29 152.815 410.762 157.67C410.172 158.254 409.122 157.865 409.122 157.024C409.056 155.274 408.531 153.332 407.154 152.037C406.104 156.44 402.605 161.44 397.618 163.901C396.962 164.225 396.175 163.708 396.241 162.995C396.37 156.972 392.454 153.137 389.041 148.151C386.022 143.684 384.054 135.46 390.55 130.086Z" fill="white"/>
</svg>
